<?xml version="1.0" encoding="utf-8"?>
<!-- Generator: Adobe Illustrator 19.1.0, SVG Export Plug-In . SVG Version: 6.00 Build 0)  -->
<svg version="1.1" id="Camada_1" xmlns="http://www.w3.org/2000/svg" xmlns:xlink="http://www.w3.org/1999/xlink" x="0px" y="0px"
	 viewBox="-133 295.9 731.5 411.1" style="enable-background:new -133 295.9 731.5 411.1;" xml:space="preserve">
<style type="text/css">
	.st0{fill:#FFFFFF;}
</style>
<g>
	<path class="st0" d="M327.6,353.5c-35.9,0-65.1,29.2-65.1,65.1s29.2,65.1,65.1,65.1c35.9,0,65.1-29.2,65.1-65.1
		S363.5,353.5,327.6,353.5z M327.6,464.4c-25.2,0-45.8-20.5-45.8-45.8s20.5-45.8,45.8-45.8s45.8,20.5,45.8,45.8
		S352.9,464.4,327.6,464.4z"/>
	<path class="st0" d="M267.2,660.8h121.2V539.5H267.2V660.8z M286.6,558.9h82.5v82.5h-82.5V558.9z"/>
	<rect x="82.2" y="355.4" class="st0" width="132" height="19.3"/>
	<rect x="82.2" y="406.2" class="st0" width="132" height="19.3"/>
	<rect x="82.2" y="456.5" class="st0" width="132" height="19.3"/>
	<path class="st0" d="M146.9,664.5l72.4-124.9H74.5L146.9,664.5z M146.9,625.8l-38.8-67h77.6L146.9,625.8z"/>
</g>
</svg>
