<?xml version="1.0" encoding="utf-8"?>
<!-- Generator: Adobe Illustrator 19.1.0, SVG Export Plug-In . SVG Version: 6.00 Build 0)  -->
<svg version="1.1" id="Camada_1" xmlns="http://www.w3.org/2000/svg" xmlns:xlink="http://www.w3.org/1999/xlink" x="0px" y="0px"
	 viewBox="-133 295.9 731.5 411.1" style="enable-background:new -133 295.9 731.5 411.1;" xml:space="preserve">
<style type="text/css">
	.st0{fill:#FFFFFF;}
</style>
<g>
	<path class="st0" d="M331.7,329.6h-198c-40.9,0-74.1,33.2-74.1,74.1v198c0,40.9,33.2,74.1,74.1,74.1h198
		c40.9,0,74.1-33.2,74.1-74.1v-198C405.8,362.8,372.6,329.6,331.7,329.6z M391.8,601.6c0,33.1-26.9,60-60,60h-198
		c-33.1,0-60-26.9-60-60v-198c0-33.1,26.9-60,60-60h198c33.1,0,60,26.9,60,60V601.6z"/>
	<path class="st0" d="M302,397.2c-26.1,0-47.4,21.3-47.4,47.4c0,26.1,21.3,47.4,47.4,47.4c26.1,0,47.4-21.3,47.4-47.4
		C349.4,418.5,328.1,397.2,302,397.2z M302,477.9c-18.4,0-33.3-14.9-33.3-33.3c0-18.4,14.9-33.3,33.3-33.3
		c18.4,0,33.3,14.9,33.3,33.3C335.3,463,320.4,477.9,302,477.9z"/>
	<path class="st0" d="M258.1,620.7h88.2v-88.2h-88.2V620.7z M272.2,546.6h60v60h-60V546.6z"/>
	<rect x="123.5" y="398.6" class="st0" width="96" height="14.1"/>
	<rect x="123.5" y="435.6" class="st0" width="96" height="14.1"/>
	<rect x="123.5" y="472.2" class="st0" width="96" height="14.1"/>
	<path class="st0" d="M170.5,623.4l52.6-90.9H117.9L170.5,623.4z M170.5,595.3l-28.2-48.7h56.4L170.5,595.3z"/>
</g>
</svg>
