<?xml version="1.0" encoding="utf-8"?>
<!-- Generator: Adobe Illustrator 19.1.0, SVG Export Plug-In . SVG Version: 6.00 Build 0)  -->
<svg version="1.1" id="Camada_1" xmlns="http://www.w3.org/2000/svg" xmlns:xlink="http://www.w3.org/1999/xlink" x="0px" y="0px"
	 viewBox="-133 295.9 731.5 411.1" style="enable-background:new -133 295.9 731.5 411.1;" xml:space="preserve">
<style type="text/css">
	.st0{fill:#FFFFFF;}
</style>
<g>
	<polygon class="st0" points="190.4,644.7 200.3,650.4 200.6,526.2 190.8,520.5 181,514.8 112.2,475.1 92.5,463.8 92.5,486.3 
		92.3,554.1 111.9,565.4 112.1,497.7 180.9,537.4 180.7,616.4 62.8,548.4 62.7,570.9 180.6,639 	"/>
	<polygon class="st0" points="82.8,424.2 63.2,412.9 63.1,435.4 62.8,537.1 82.5,548.4 82.7,446.8 210.5,520.5 210.1,667.3 
		62.7,582.2 62.6,604.8 210,689.9 219.8,695.6 229.7,701.2 230.1,531.9 230.2,509.3 210.5,498 	"/>
	<polygon class="st0" points="358.9,475.1 359.3,610.6 290.5,650.3 290.2,514.8 270.5,526.2 271,684.2 280.8,678.6 290.6,672.9 
		359.4,633.2 369.2,627.5 379,621.8 378.6,463.8 	"/>
	<polygon class="st0" points="408,412.9 398.1,418.5 388.3,424.2 329.4,458.2 329.4,469.5 329.4,480.8 329.7,593.7 319.9,599.4 
		319.6,486.5 319.6,475.2 319.5,463.9 260.6,498 250.8,503.6 240.9,509.3 241.5,701.3 261.1,689.9 260.6,520.5 299.9,497.8 
		300.3,610.8 300.3,633.3 320,622 329.8,616.3 342.7,608.9 349.5,605 349.1,469.5 388.4,446.8 388.9,616.2 408.5,604.8 	"/>
	<polygon class="st0" points="353,433.1 372.5,421.8 234.9,342.4 225.2,348 215.4,353.7 127.6,404.8 137.4,410.4 147.2,416.1 
		265.1,484.2 284.7,472.8 166.7,404.8 235.1,365.1 	"/>
	<polygon class="st0" points="108,404.8 234.9,331 382.3,416.1 401.8,404.8 254.4,319.7 244.6,314 234.8,308.3 68.8,404.8 
		78.6,410.4 88.5,416.1 235.8,501.2 255.4,489.9 	"/>
</g>
</svg>
