<?xml version="1.0" encoding="utf-8"?>
<!-- Generator: Adobe Illustrator 19.1.0, SVG Export Plug-In . SVG Version: 6.00 Build 0)  -->
<svg version="1.1" id="Camada_1" xmlns="http://www.w3.org/2000/svg" xmlns:xlink="http://www.w3.org/1999/xlink" x="0px" y="0px"
	 viewBox="0 0 731.5 411.1" style="enable-background:new 0 0 731.5 411.1;" xml:space="preserve">
<style type="text/css">
	.st0{opacity:0.3;}
	.st1{fill:#FFFFFF;}
	.st2{fill:#C1272D;}
	.st3{fill:#93278F;}
	.st4{fill:#00A99D;}
	.st5{fill:#FBB03B;}
</style>
<g>
	<polygon class="st1" points="528,150.6 528,0 401.3,0 448.9,152.2 	"/>
	<polygon class="st1" points="401.1,301.4 352.9,337 449.3,337 	"/>
	<polygon class="st1" points="400.9,0 191,0 191,150 352.3,152.2 	"/>
	<polygon class="st1" points="510.9,337 528,337 528,208.1 479,244 	"/>
	<polygon class="st1" points="191,150 191,337 291.3,337 322.2,244 	"/>
	<polygon class="st1" points="191,150 191.1,150 191.1,150 	"/>
</g>
<g>
	<path class="st1" d="M222.5,374.5v36h-6.9v-14.3h-17.7v14.3H191v-36h6.9V390h17.7v-15.6H222.5z"/>
	<path class="st1" d="M247.1,411.1c-2.6,0-5-0.5-7.2-1.5c-2.3-1-4.2-2.3-5.9-4c-1.7-1.7-3-3.7-4-5.9c-1-2.3-1.5-4.7-1.5-7.3
		c0-2.6,0.5-5,1.5-7.2c1-2.3,2.3-4.3,4-5.9c1.7-1.7,3.7-3,5.9-4c2.3-1,4.7-1.5,7.2-1.5c2.6,0,5,0.5,7.3,1.5c2.3,1,4.2,2.3,5.9,4
		c1.7,1.7,3,3.7,4,5.9c1,2.3,1.5,4.7,1.5,7.2c0,2.6-0.5,5-1.5,7.3c-1,2.3-2.3,4.2-4,5.9c-1.7,1.7-3.7,3-5.9,4
		C252.1,410.6,249.7,411.1,247.1,411.1z M247.2,380.2c-1.6,0-3.2,0.3-4.6,1c-1.4,0.7-2.7,1.6-3.7,2.7c-1.1,1.1-1.9,2.4-2.5,3.9
		c-0.6,1.5-0.9,3-0.9,4.6c0,1.6,0.3,3.2,0.9,4.7s1.5,2.8,2.5,3.9c1.1,1.1,2.3,2,3.7,2.7c1.4,0.7,3,1,4.6,1c1.6,0,3.2-0.3,4.6-1
		c1.4-0.7,2.7-1.6,3.7-2.7c1.1-1.1,1.9-2.4,2.5-3.9s0.9-3,0.9-4.7c0-1.6-0.3-3.2-0.9-4.6c-0.6-1.5-1.5-2.8-2.5-3.9
		c-1.1-1.1-2.3-2-3.7-2.7C250.3,380.6,248.8,380.2,247.2,380.2z"/>
	<path class="st1" d="M297.8,404.3v6.1h-25.9v-36h6.9v29.9H297.8z"/>
	<path class="st1" d="M330,404.3v6.1h-25.9v-36h6.9v29.9H330z"/>
	<path class="st1" d="M358.8,374.5c-0.9,1.5-2,3.2-3.2,5.2c-1.2,1.9-2.4,3.9-3.7,5.9c-1.2,2-2.5,4-3.7,5.9c-1.2,1.9-2.3,3.7-3.2,5.3
		v13.6h-6.9v-13.6c-2.1-3.7-4.4-7.5-6.8-11.2c-2.4-3.7-4.7-7.4-6.8-11.2h8c1.5,2.5,3,5,4.5,7.6c1.5,2.6,3,5.2,4.5,7.6
		c0.7-1.1,1.5-2.4,2.3-3.7c0.8-1.3,1.6-2.6,2.4-4c0.8-1.3,1.6-2.6,2.3-3.9c0.8-1.3,1.5-2.5,2.2-3.7H358.8z"/>
	<path class="st1" d="M410.2,374.5l-13.4,35.9h-0.7l-9.7-20.9l-9.8,21h-0.6l-13.3-36h7.3l7,19.7l9.1-19.7h0.4l9.1,19.8l7.2-19.8
		H410.2z"/>
	<path class="st1" d="M429.5,411.1c-2.6,0-5-0.5-7.2-1.5c-2.3-1-4.2-2.3-5.9-4c-1.7-1.7-3-3.7-4-5.9c-1-2.3-1.5-4.7-1.5-7.3
		c0-2.6,0.5-5,1.5-7.2c1-2.3,2.3-4.3,4-5.9c1.7-1.7,3.7-3,5.9-4c2.3-1,4.7-1.5,7.2-1.5c2.6,0,5,0.5,7.3,1.5c2.3,1,4.2,2.3,5.9,4
		c1.7,1.7,3,3.7,4,5.9c1,2.3,1.5,4.7,1.5,7.2c0,2.6-0.5,5-1.5,7.3c-1,2.3-2.3,4.2-4,5.9c-1.7,1.7-3.7,3-5.9,4
		C434.5,410.6,432,411.1,429.5,411.1z M429.5,380.2c-1.6,0-3.2,0.3-4.6,1c-1.4,0.7-2.7,1.6-3.7,2.7c-1.1,1.1-1.9,2.4-2.5,3.9
		c-0.6,1.5-0.9,3-0.9,4.6c0,1.6,0.3,3.2,0.9,4.7s1.5,2.8,2.5,3.9c1.1,1.1,2.3,2,3.7,2.7c1.4,0.7,3,1,4.6,1c1.6,0,3.2-0.3,4.6-1
		c1.4-0.7,2.7-1.6,3.7-2.7c1.1-1.1,1.9-2.4,2.5-3.9s0.9-3,0.9-4.7c0-1.6-0.3-3.2-0.9-4.6c-0.6-1.5-1.5-2.8-2.5-3.9
		c-1.1-1.1-2.3-2-3.7-2.7C432.6,380.6,431.1,380.2,429.5,380.2z"/>
	<path class="st1" d="M471,411.1c-2.6,0-5-0.5-7.2-1.5c-2.3-1-4.2-2.3-5.9-4c-1.7-1.7-3-3.7-4-5.9c-1-2.3-1.5-4.7-1.5-7.3
		c0-2.6,0.5-5,1.5-7.2c1-2.3,2.3-4.3,4-5.9c1.7-1.7,3.7-3,5.9-4c2.3-1,4.7-1.5,7.2-1.5c2.6,0,5,0.5,7.3,1.5c2.3,1,4.2,2.3,5.9,4
		c1.7,1.7,3,3.7,4,5.9c1,2.3,1.5,4.7,1.5,7.2c0,2.6-0.5,5-1.5,7.3c-1,2.3-2.3,4.2-4,5.9c-1.7,1.7-3.7,3-5.9,4
		C476.1,410.6,473.6,411.1,471,411.1z M471.1,380.2c-1.6,0-3.2,0.3-4.6,1c-1.4,0.7-2.7,1.6-3.7,2.7c-1.1,1.1-1.9,2.4-2.5,3.9
		c-0.6,1.5-0.9,3-0.9,4.6c0,1.6,0.3,3.2,0.9,4.7s1.5,2.8,2.5,3.9c1.1,1.1,2.3,2,3.7,2.7c1.4,0.7,3,1,4.6,1c1.6,0,3.2-0.3,4.6-1
		c1.4-0.7,2.7-1.6,3.7-2.7c1.1-1.1,1.9-2.4,2.5-3.9s0.9-3,0.9-4.7c0-1.6-0.3-3.2-0.9-4.6c-0.6-1.5-1.5-2.8-2.5-3.9
		c-1.1-1.1-2.3-2-3.7-2.7C474.2,380.6,472.7,380.2,471.1,380.2z"/>
	<path class="st1" d="M510,410.4h-14.2v-36H510c5.1,0,9.4,1.5,12.7,4.5c1.8,1.6,3.1,3.5,4,5.8c0.9,2.3,1.3,4.8,1.3,7.6
		c0,2.9-0.4,5.4-1.3,7.7c-0.9,2.3-2.2,4.2-4,5.8c-1.6,1.5-3.5,2.6-5.6,3.3C514.9,410.1,512.5,410.4,510,410.4z M502.7,404.3h7.3
		c1.3,0,2.6-0.1,3.9-0.4c1.3-0.3,2.5-0.9,3.6-1.7c1.1-0.9,1.9-2.1,2.6-3.6c0.7-1.5,1-3.6,1-6c0-2.5-0.3-4.5-1-6.1
		c-0.7-1.6-1.6-2.8-2.7-3.6c-1.1-0.9-2.3-1.4-3.6-1.7c-1.3-0.3-2.6-0.4-3.8-0.4h-7.3V404.3z"/>
</g>
</svg>
