<?xml version="1.0" encoding="utf-8"?>
<!-- Generator: Adobe Illustrator 19.1.0, SVG Export Plug-In . SVG Version: 6.00 Build 0)  -->
<svg version="1.1" id="Camada_1" xmlns="http://www.w3.org/2000/svg" xmlns:xlink="http://www.w3.org/1999/xlink" x="0px" y="0px"
	 viewBox="-133 295.9 731.5 411.1" style="enable-background:new -133 295.9 731.5 411.1;" xml:space="preserve">
<style type="text/css">
	.st0{fill:#FFFFFF;}
</style>
<g>
	<path class="st0" d="M229.7,516.2c0,2.3,2,2.9,3.5,2.9c1.6,0,2.4-0.6,3.3-1.2l1,1h2.9l-2.2-2.3c0.8-0.6,1.4-1.4,1.4-1.4l-1.4-1.4
		c-1,1.1-1.5,1.3-1.5,1.3l-1.4-1.4c0,0,2-1,2-2.5c0-1.3-1-2.7-3-2.7c-2.1,0-3.2,1.1-3.2,2.7c0,0.8,0.4,1.5,1,2.3
		C231,514.1,229.7,514.9,229.7,516.2z M234.4,510.2c0.8,0,1,0.5,1,1c0,0.5-0.6,1-1.1,1.2c0,0-0.7-0.7-0.7-1.2
		C233.5,510.6,233.8,510.2,234.4,510.2z M233.4,514.7l1.6,1.6c0,0-0.7,0.6-1.5,0.6c-0.5,0-1.1-0.3-1.1-0.9
		C232.3,515.1,233.4,514.7,233.4,514.7z"/>
	<path class="st0" d="M315.3,514.4c0.7-1.2,1-1.7,1.6-1.7c0.6,0,0.9,0.5,1.6,1.7c0.7,1.2,1.6,2.9,3.6,2.9c2,0,2.9-1.7,3.6-2.9
		c0.7-1.2,1.1-1.7,1.6-1.7c0.6,0,1,0.5,1.6,1.7c0.7,1.2,1.4,2.9,3.7,2.9V515c-0.6,0-1-0.5-1.7-1.7c-0.7-1.2-1.7-2.9-3.7-2.9
		c-2,0-2.9,1.7-3.6,2.9c-0.7,1.2-1,1.7-1.6,1.7c-0.6,0-0.9-0.5-1.6-1.7c-0.7-1.2-1.6-2.9-3.6-2.9c-2,0-2.9,1.7-3.6,2.9
		c-0.7,1.2-1,1.7-1.6,1.7c-0.6,0-0.9-0.5-1.6-1.7c-0.7-1.2-1.6-2.9-3.6-2.9c-2,0-2.9,1.7-3.6,2.9c-0.7,1.2-1,1.7-1.6,1.7
		s-0.9-0.5-1.6-1.7c-0.7-1.2-1.6-2.9-3.6-2.9c-2,0-2.9,1.7-3.6,2.9c-0.7,1.2-1,1.7-1.6,1.7s-0.9-0.5-1.6-1.7
		c-0.7-1.2-1.6-2.9-3.6-2.9c-2,0-2.9,1.7-3.6,2.9c-0.7,1.2-1,1.7-1.6,1.7s-0.9-0.5-1.6-1.7c-0.7-1.2-1.6-2.9-3.6-2.9
		c-2,0-2.9,1.7-3.6,2.9c-0.7,1.2-1,1.7-1.6,1.7c-0.6,0-0.9-0.5-1.6-1.7c-0.7-1.2-1.6-2.9-3.6-2.9c-2,0-2.9,1.7-3.6,2.9
		c-0.7,1.2-1,1.7-1.6,1.7s-0.9-0.5-1.6-1.7c-0.7-1.2-1.6-2.9-3.6-2.9c-2,0-2.9,1.7-3.6,2.9c-0.7,1.2-1.1,1.7-1.6,1.7
		c-0.6,0-1-0.5-1.7-1.7c-0.7-1.2-1.4-2.9-3.7-2.9v2.3c0.6,0,1.1,0.5,1.7,1.7c0.7,1.2,1.8,2.9,3.7,2.9c2,0,2.9-1.7,3.6-2.9
		c0.7-1.2,1-1.7,1.6-1.7c0.6,0,0.9,0.5,1.6,1.7c0.7,1.2,1.6,2.9,3.6,2.9c2,0,2.9-1.7,3.6-2.9c0.7-1.2,1-1.7,1.6-1.7s0.9,0.5,1.6,1.7
		c0.7,1.2,1.6,2.9,3.6,2.9c2,0,2.9-1.7,3.6-2.9c0.7-1.2,1-1.7,1.6-1.7s0.9,0.5,1.6,1.7c0.7,1.2,1.6,2.9,3.6,2.9c2,0,2.9-1.7,3.6-2.9
		c0.7-1.2,1-1.7,1.6-1.7s0.9,0.5,1.6,1.7c0.7,1.2,1.6,2.9,3.6,2.9s2.9-1.7,3.6-2.9c0.7-1.2,1-1.7,1.6-1.7c0.6,0,0.9,0.5,1.6,1.7
		c0.7,1.2,1.6,2.9,3.6,2.9c2,0,2.9-1.7,3.6-2.9c0.7-1.2,1-1.7,1.6-1.7s0.9,0.5,1.6,1.7c0.7,1.2,1.6,2.9,3.6,2.9
		C313.7,517.2,314.6,515.6,315.3,514.4z"/>
	<path class="st0" d="M183.4,517.2c1.9,0,2.9-1.7,3.5-2.9c0.6-1.1,1-1.7,1.5-1.7c0.6,0,0.9,0.6,1.5,1.7c0.7,1.2,1.6,2.9,3.5,2.9
		c1.9,0,2.9-1.7,3.5-2.9c0.6-1.1,1-1.7,1.5-1.7c0.6,0,0.9,0.6,1.5,1.7c0.7,1.2,1.6,2.9,3.5,2.9s2.9-1.7,3.5-2.9
		c0.6-1.1,1-1.7,1.5-1.7c0.6,0,0.9,0.6,1.5,1.7c0.7,1.2,1.6,2.9,3.5,2.9c1.9,0,2.9-1.7,3.5-2.9c0.6-1.1,1-1.7,1.5-1.7
		c0.6,0,0.9,0.6,1.5,1.7c0.7,1.2,1.7,2.9,3.5,2.9V515c-0.6,0-0.9-0.6-1.5-1.7c-0.7-1.2-1.5-2.9-3.5-2.9c-1.9,0-2.9,1.7-3.5,2.9
		c-0.6,1.1-1,1.7-1.5,1.7c-0.6,0-0.9-0.6-1.5-1.7c-0.7-1.2-1.6-2.9-3.5-2.9c-1.9,0-2.9,1.7-3.5,2.9c-0.6,1.1-1,1.7-1.5,1.7
		s-0.9-0.6-1.5-1.7c-0.7-1.2-1.6-2.9-3.5-2.9c-1.9,0-2.9,1.7-3.5,2.9c-0.6,1.1-1,1.7-1.5,1.7c-0.6,0-0.9-0.6-1.5-1.7
		c-0.7-1.2-1.6-2.9-3.5-2.9s-2.9,1.7-3.5,2.9c-0.6,1.1-1,1.7-1.5,1.7s-0.9-0.6-1.5-1.7c-0.7-1.2-1.6-2.9-3.5-2.9s-2.9,1.7-3.5,2.9
		c-0.6,1.1-1,1.7-1.5,1.7s-0.9-0.6-1.5-1.7c-0.7-1.2-1.6-2.9-3.5-2.9c-1.9,0-2.9,1.7-3.5,2.9c-0.6,1.1-1,1.7-1.5,1.7
		s-0.9-0.6-1.5-1.7c-0.7-1.2-1.6-2.9-3.5-2.9c-1.9,0-2.9,1.7-3.5,2.9c-0.6,1.1-1,1.7-1.5,1.7c-0.6,0-0.9-0.6-1.5-1.7
		c-0.7-1.2-1.6-2.9-3.5-2.9c-1.9,0-2.9,1.7-3.5,2.9c-0.6,1.1-1,1.7-1.5,1.7c-0.6,0-0.9-0.6-1.5-1.7c-0.7-1.2-1.7-2.9-3.4-2.9v2.3
		c0.6,0,0.9,0.6,1.4,1.7c0.7,1.2,1.5,2.9,3.5,2.9c1.9,0,2.9-1.7,3.5-2.9c0.6-1.1,1-1.7,1.5-1.7c0.6,0,0.9,0.6,1.5,1.7
		c0.7,1.2,1.6,2.9,3.5,2.9s2.9-1.7,3.5-2.9c0.6-1.1,1-1.7,1.5-1.7c0.6,0,0.9,0.6,1.5,1.7c0.7,1.2,1.6,2.9,3.5,2.9s2.9-1.7,3.5-2.9
		c0.6-1.1,1-1.7,1.5-1.7c0.6,0,0.9,0.6,1.5,1.7c0.7,1.2,1.6,2.9,3.5,2.9s2.9-1.7,3.5-2.9c0.6-1.1,1-1.7,1.5-1.7s0.9,0.6,1.5,1.7
		C180.6,515.6,181.5,517.2,183.4,517.2z"/>
	<path class="st0" d="M198,603.9c1,0,1.7,0.5,1.7,0.5l0.9-1.7c0,0-1-0.8-2.9-0.8c-2.5,0-4.8,2.1-4.8,4.6c0,2.5,2.3,4.6,4.8,4.6
		c1.9,0,2.9-0.8,2.9-0.8l-0.9-1.7c0,0-0.7,0.5-1.7,0.5c-2,0-2.9-1.4-2.9-2.6C195.1,605.3,196,603.9,198,603.9z"/>
	<path class="st0" d="M214.4,606.5c0-2.6-2-4.6-4.5-4.6c-2.4,0-4.5,2-4.5,4.6s1.8,4.6,4.5,4.6C212.5,611.1,214.4,609,214.4,606.5z
		 M207.7,606.5c0-1.3,0.7-2.6,2.3-2.6c1.6,0,2.3,1.3,2.3,2.6c0,1.3-0.7,2.6-2.3,2.6C208.3,609.1,207.7,607.8,207.7,606.5z"/>
	<rect x="219.8" y="602" class="st0" width="2" height="8.9"/>
	<polygon class="st0" points="234.1,602 232.1,607.1 230.1,602 228,602 227.2,610.9 229.2,610.9 229.6,605.6 229.7,605.6 
		231.5,610.8 232.7,610.8 234.5,605.6 234.6,605.6 235,610.9 237,610.9 236.2,602 	"/>
	<path class="st0" d="M247.8,604.3c0-1.7-1.2-2.3-2.7-2.3h-2.8v8.9h3.4c1.8,0,2.9-1,2.9-2.5c0-1.4-0.8-2-1.9-2.2
		C247.5,605.8,247.8,605.1,247.8,604.3z M244.4,603.6h0.2c0.9,0,1.3,0.3,1.3,0.9c0,0.7-0.5,1-1.3,1h-0.2V603.6z M245,609.3h-0.6
		v-2.1h0.6c1,0,1.5,0.3,1.5,1.1C246.5,609,246,609.3,245,609.3z"/>
	<path class="st0" d="M260.1,604.7c0-1.7-1.2-2.6-2.9-2.6H254v8.9h2v-3.5l2.7,3.5h2.6l-3.1-3.7C259.4,606.9,260.1,606,260.1,604.7z
		 M256.3,606h-0.2v-2.3h0.2c0.8,0,1.7,0.1,1.7,1.2C258,605.9,257.1,606,256.3,606z"/>
	<path class="st0" d="M268.9,602l-3.6,8.9h2.2l0.7-1.8h3.4l0.7,1.8h2.2l-3.6-8.9H268.9z M268.8,607.4l1-2.6h0l1,2.6H268.8z"/>
	<path class="st0" d="M169.7,391.1c-2.5,0-4.6,2.1-4.6,4.7c0,2.7,1.9,4.7,4.6,4.7c2.6,0,4.6-2.1,4.6-4.7
		C174.3,393.2,172.2,391.1,169.7,391.1z M169.7,398.6c-1.7,0-2.4-1.4-2.4-2.7c0-1.4,0.8-2.7,2.4-2.7c1.6,0,2.4,1.4,2.4,2.7
		C172,397.2,171.3,398.6,169.7,398.6z"/>
	<path class="st0" d="M179.7,391.3v5.9c0,2.3,1.2,3.4,3.6,3.4c2.3,0,3.6-1.2,3.6-3.4v-5.9h-2.1v5.3c0,1.5-0.5,2-1.5,2
		c-1,0-1.5-0.4-1.5-2v-5.3H179.7z"/>
	<polygon class="st0" points="191.7,393.1 193.8,393.1 193.8,400.5 195.9,400.5 195.9,393.1 198.1,393.1 198.1,391.3 191.7,391.3 	
		"/>
	<path class="st0" d="M207,400.6c2.3,0,3.6-1.2,3.6-3.4v-5.9h-2.1v5.3c0,1.5-0.5,2-1.5,2c-1,0-1.5-0.4-1.5-2v-5.3h-2.1v5.9
		C203.4,399.5,204.6,400.6,207,400.6z"/>
	<path class="st0" d="M222.9,397.9c0-1.5-0.8-2.1-2-2.3c0.8-0.4,1.1-1.1,1.1-2c0-1.7-1.2-2.3-2.8-2.3h-2.8v9.2h3.5
		C221.8,400.5,222.9,399.4,222.9,397.9z M218.5,392.9h0.2c0.9,0,1.4,0.3,1.4,0.9c0,0.8-0.5,1-1.4,1h-0.2V392.9z M218.5,398.9v-2.2
		h0.7c1,0,1.5,0.3,1.5,1.1c0,0.7-0.5,1-1.5,1H218.5z"/>
	<path class="st0" d="M234.7,394c0-1.8-1.3-2.7-3-2.7h-3.3v9.2h2.1v-3.6l2.8,3.6h2.7l-3.2-3.8C234,396.3,234.7,395.4,234.7,394z
		 M230.8,395.4h-0.2V393h0.2c0.8,0,1.7,0.1,1.7,1.2C232.5,395.3,231.6,395.4,230.8,395.4z"/>
	<path class="st0" d="M249.9,395.9c0-2.7-2.1-4.7-4.6-4.7c-2.5,0-4.6,2.1-4.6,4.7c0,2.7,1.9,4.7,4.6,4.7
		C247.9,400.6,249.9,398.6,249.9,395.9z M245.3,398.6c-1.7,0-2.4-1.4-2.4-2.7c0-1.4,0.8-2.7,2.4-2.7c1.6,0,2.4,1.4,2.4,2.7
		C247.6,397.2,247,398.6,245.3,398.6z"/>
	<path class="st0" d="M270.2,398.6h-3.4c0,0,3.2-2.1,3.2-4.3c0-1.2-0.4-3.2-3.6-3.2c-2.5,0-3.4,2.7-3.4,2.7l1.7,0.8
		c0,0,0.6-1.7,1.6-1.7c1.2,0,1.3,1.1,1.3,1.5c0,1.7-4.7,5.6-4.7,5.6v0.5h7.1V398.6z"/>
	<path class="st0" d="M275.8,395.9c0,3.4,1.8,4.7,3.7,4.7c2,0,3.7-1.3,3.7-4.7c0-3.2-1.8-4.7-3.7-4.7
		C277.6,391.1,275.8,392.7,275.8,395.9z M281.2,395.9c0,2-0.6,2.9-1.6,2.9c-1,0-1.6-0.9-1.6-2.9c0-1.8,0.6-2.9,1.6-2.9
		C280.6,393,281.2,394,281.2,395.9z"/>
	<polygon class="st0" points="292.2,400.5 292.2,391.3 291.2,391.3 288.6,393 288.6,395.1 290.1,394.1 290.1,400.5 	"/>
	<path class="st0" d="M301,398.9c-1,0-1.4-0.5-1.6-1l-1.7,0.8c0.3,0.9,1.3,2,3.3,2c2,0,3.4-1.3,3.4-3c0-2.5-1.7-3.2-3.4-3.2
		c-0.1,0-0.2,0-0.3,0l0.2-1.3h2.9v-1.8h-4.7l-0.8,4.9c0.3-0.1,0.8-0.3,1.6-0.3c1.2,0,2.4,0.4,2.4,1.6
		C302.3,398.3,301.7,398.9,301,398.9z"/>
	<rect x="138.2" y="531.6" class="st0" width="4.8" height="21"/>
	<polygon class="st0" points="155.4,540.2 155.5,540.2 159.8,552.5 162.6,552.5 166.9,540.2 167.1,540.2 168.1,552.6 172.8,552.6 
		171,531.6 165.9,531.6 161.2,543.7 156.6,531.6 151.5,531.6 149.6,552.6 154.4,552.6 	"/>
	<path class="st0" d="M184.6,544.8h2.9c4.1,0,7.2-2.4,7.2-6.7c0-4.4-3.1-6.5-7.2-6.5h-7.7v21h4.8V544.8z M184.6,535.4h1.3
		c1.9,0,3.7,0.6,3.7,2.8c0,2.1-1.8,2.8-3.7,2.8h-1.3V535.4z"/>
	<path class="st0" d="M222.1,542.1c0-6.1-4.7-10.9-10.6-10.9c-5.8,0-10.6,4.7-10.6,10.9c0,6.1,4.4,10.9,10.6,10.9
		C217.6,553,222.1,548.2,222.1,542.1z M206.1,542.1c0-3.1,1.7-6.3,5.4-6.3c3.7,0,5.4,3.1,5.4,6.3c0,3.1-1.6,6.3-5.4,6.3
		C207.6,548.4,206.1,545.2,206.1,542.1z"/>
	<path class="st0" d="M237.4,535.6c2.2,0,4.2,1.5,4.2,1.5l1.9-3.8c0,0-2.7-2-6.5-2c-3.4,0-6.8,2.5-6.8,6.4c0,2.2,1.5,4.1,4,5.4
		c2.5,1.2,4.7,1.9,4.7,3.5c0,2-2,2.1-3,2.1c-2.3,0-5.1-2.4-5.1-2.4l-2.4,4c0,0,3,2.8,7.9,2.8c4.1,0,7.9-1.8,7.9-6.8
		c0-2.7-2.6-4.7-4.9-5.7c-2.4-1-4.4-1.9-4.4-3C234.9,536.3,235.7,535.6,237.4,535.6z"/>
	<rect x="251.5" y="531.6" class="st0" width="4.8" height="21"/>
	<path class="st0" d="M272.1,554.2l0.4-1.3c0.5,0.1,1,0.1,1.5,0.1c4.6,0,6.9-1.9,6.9-1.9l-2-4.1c0,0-1.7,1.3-4.1,1.3
		c-4.8,0-6.9-3.4-6.9-6.2c0-2.8,2.1-6.2,6.9-6.2c2.4,0,4.1,1.3,4.1,1.3l2-4.1c0,0-2.3-1.9-6.9-1.9c-6,0-11.4,4.9-11.4,10.9
		c0,4.9,3.5,8.9,8,10.3l-1,3.2l0.3,0.2c0,0,0.4-0.2,1.3-0.2c0.7,0,1.6,0.4,1.6,1.1c0,0.5-0.3,1-1.3,1c-1.2,0-2.1-1.2-2.1-1.2
		l-1.8,1.4c0,0,1.6,2.1,3.9,2.1c2.8,0,3.9-1.7,3.9-3.3C275.4,555,273.5,554.2,272.1,554.2z"/>
	<path class="st0" d="M290.8,552.6l1.6-4.2h8l1.6,4.2h5.1l-8.5-21h-4.4l-8.5,21H290.8z M296.3,538.1L296.3,538.1l2.4,6.1h-4.7
		L296.3,538.1z"/>
	<path class="st0" d="M294.1,527.8c0.9,0,1.9,0.5,1.9,0.5s1.7,0.7,2.6,0.7c2.8,0,3.5-4.4,3.5-4.4h-2.6c0,0-0.3,1.2-1.1,1.2
		c-0.9,0-1.9-0.5-1.9-0.5s-1.7-0.7-2.6-0.7c-2.8,0-3.5,4.4-3.5,4.4h2.6C293,529,293.3,527.8,294.1,527.8z"/>
	<path class="st0" d="M333.1,542.1c0-6.1-4.7-10.9-10.6-10.9c-5.8,0-10.6,4.7-10.6,10.9c0,6.1,4.4,10.9,10.6,10.9
		C328.6,553,333.1,548.2,333.1,542.1z M317.1,542.1c0-3.1,1.7-6.3,5.4-6.3c3.7,0,5.4,3.1,5.4,6.3c0,3.1-1.6,6.3-5.4,6.3
		C318.6,548.4,317.1,545.2,317.1,542.1z"/>
	<rect x="138" y="566.8" class="st0" width="4.8" height="21"/>
	<polygon class="st0" points="171.3,587.8 171.3,566.8 166.5,566.8 166.5,579.9 166.4,579.9 158.1,566.8 153.3,566.8 153.3,587.8 
		158.1,587.8 158.1,574.8 158.2,574.8 166.5,587.8 	"/>
	<path class="st0" d="M195.8,581.4c0-2.7-2.6-4.7-4.9-5.7c-2.4-1-4.4-1.9-4.4-3c0-1.1,0.9-1.9,2.5-1.9c2.2,0,4.3,1.5,4.3,1.5
		l1.9-3.8c0,0-2.7-2-6.5-2c-3.4,0-6.8,2.5-6.8,6.4c0,2.2,1.5,4.1,4,5.4c2.5,1.2,4.7,1.9,4.7,3.5c0,2-2,2.1-3,2.1
		c-2.3,0-5.1-2.4-5.1-2.4l-2.4,4c0,0,3,2.8,7.9,2.8C192,588.2,195.8,586.4,195.8,581.4z"/>
	<polygon class="st0" points="212.6,561.4 210.2,558.5 205.1,563 206.5,564.9 	"/>
	<rect x="205.2" y="566.8" class="st0" width="4.8" height="21"/>
	<path class="st0" d="M239.1,576.1h-9.7v3.7h4.8c0,2.6-2.3,4-4.6,4c-3,0-5.3-2.9-5.3-6.5c0-3.6,2.4-6.6,5.3-6.6
		c1.9,0,3.5,0.7,4.7,2.7l3.1-3.4c-1.8-2.2-4.4-3.6-8.1-3.6c-5.9,0-10.2,4.9-10.2,10.9c0,6,4.6,10.9,10.2,10.9c4.1,0,8.6-2.3,9.7-7.6
		V576.1z"/>
	<polygon class="st0" points="248.4,587.8 253.1,587.8 253.1,574.8 253.2,574.8 261.5,587.8 266.3,587.8 266.3,566.8 261.5,566.8 
		261.5,579.9 261.5,579.9 253.1,566.8 248.4,566.8 	"/>
	<rect x="276.5" y="566.8" class="st0" width="4.8" height="21"/>
	<path class="st0" d="M297.7,566.8l-8.5,21h5.1l1.6-4.2h8l1.6,4.2h5.1l-8.5-21H297.7z M297.6,579.4l2.3-6.1h0.1l2.3,6.1H297.6z"/>
	<path class="st0" d="M327.5,575.7c-2.4-1-4.4-1.9-4.4-3c0-1.1,0.9-1.9,2.5-1.9c2.2,0,4.3,1.5,4.3,1.5l1.9-3.8c0,0-2.7-2-6.5-2
		c-3.4,0-6.8,2.5-6.8,6.4c0,2.2,1.5,4.1,4,5.4c2.5,1.2,4.7,1.9,4.7,3.5c0,2-2,2.1-3,2.1c-2.3,0-5.1-2.4-5.1-2.4l-2.4,4
		c0,0,3,2.8,7.9,2.8c4.1,0,7.9-1.8,7.9-6.8C332.4,578.7,329.8,576.7,327.5,575.7z"/>
	<polygon class="st0" points="145.6,434.9 156.7,434.9 156.7,428.1 145.6,428.1 145.6,421.2 157.6,421.2 157.6,414.4 137.8,414.4 
		137.8,448.7 145.6,448.7 	"/>
	<polygon class="st0" points="178.8,448.7 198.4,448.7 198.4,441.8 186.6,441.8 186.6,434.9 197.9,434.9 197.9,428.1 186.6,428.1 
		186.6,421.2 198.4,421.2 198.4,414.4 178.8,414.4 	"/>
	<path class="st0" d="M233,442.1c-3.8,0-8.4-3.9-8.4-3.9l-3.9,6.6c0,0,4.9,4.5,12.9,4.5c6.7,0,12.9-2.9,12.9-11.1
		c0-4.5-4.2-7.7-8-9.3c-3.9-1.7-7.1-3-7.1-4.9c0-1.9,1.4-3.1,4.1-3.1c3.5,0,6.9,2.4,6.9,2.4l3.2-6.2c0,0-4.4-3.2-10.6-3.2
		c-5.5,0-11.2,4.1-11.2,10.5c0,3.6,2.4,6.8,6.5,8.8c4.1,2,7.7,3.2,7.7,5.7C238,441.9,234.7,442.1,233,442.1z"/>
	<polygon class="st0" points="271.2,448.7 279,448.7 279,421.2 287.2,421.2 287.2,414.4 263.1,414.4 263.1,421.2 271.2,421.2 	"/>
	<path class="st0" d="M308.7,448.7l2.5-6.9h13l2.5,6.9h8.4l-13.8-34.3h-7.2l-13.8,34.3H308.7z M317.7,425L317.7,425l3.9,10h-7.7
		L317.7,425z"/>
	<polygon class="st0" points="157.4,490.4 145.6,490.4 145.6,462.9 137.8,462.9 137.8,497.2 157.4,497.2 	"/>
	<path class="st0" d="M184.9,490.4h13l2.5,6.9h8.4L195,462.9h-7.2l-13.8,34.3h8.4L184.9,490.4z M191.4,473.5L191.4,473.5l3.9,10
		h-7.7L191.4,473.5z"/>
	<polygon class="st0" points="246.6,462.9 222.5,462.9 222.5,469.8 230.7,469.8 230.7,497.2 238.5,497.2 238.5,469.8 246.6,469.8 	
		"/>
	<path class="st0" d="M268.5,490.4h13l2.5,6.9h8.4l-13.8-34.3h-7.2l-13.8,34.3h8.4L268.5,490.4z M275,473.5L275,473.5l3.9,10h-7.7
		L275,473.5z"/>
	<path class="st0" d="M318.9,490.6c-3.8,0-8.4-3.9-8.4-3.9l-3.9,6.6c0,0,4.9,4.5,12.9,4.5c6.7,0,12.9-2.9,12.9-11.1
		c0-4.5-4.2-7.7-8-9.3c-3.9-1.7-7.1-3-7.1-4.9c0-1.9,1.4-3.1,4.1-3.1c3.5,0,6.9,2.4,6.9,2.4l3.2-6.2c0,0-4.4-3.2-10.6-3.2
		c-5.5,0-11.2,4.1-11.2,10.5c0,3.6,2.4,6.8,6.5,8.8c4.1,2,7.7,3.2,7.7,5.7C323.9,490.4,320.6,490.6,318.9,490.6z"/>
	<path class="st0" d="M130.7,471.5c0-1.7-1.3-2.9-2.9-2.9h-1.7v5.8h1.7C129.3,474.4,130.7,473.2,130.7,471.5z M127.6,473.2h-0.2
		v-3.4h0.2c1,0,1.6,0.7,1.6,1.7C129.2,472.4,128.6,473.2,127.6,473.2z"/>
	<path class="st0" d="M129,477.7h-1.2l-2.3,5.8h1.4l0.4-1.2h2.2l0.4,1.2h1.4L129,477.7z M127.7,481.2l0.6-1.7h0l0.6,1.7H127.7z"/>
	<path class="st0" d="M128.3,491.1c-0.6,0-1.4-0.7-1.4-0.7l-0.7,1.1c0,0,0.8,0.8,2.2,0.8c1.1,0,2.2-0.5,2.2-1.9
		c0-0.8-0.7-1.3-1.4-1.6c-0.7-0.3-1.2-0.5-1.2-0.8c0-0.3,0.2-0.5,0.7-0.5c0.6,0,1.2,0.4,1.2,0.4l0.5-1.1c0,0-0.7-0.5-1.8-0.5
		c-0.9,0-1.9,0.7-1.9,1.8c0,0.6,0.4,1.1,1.1,1.5c0.7,0.3,1.3,0.5,1.3,1C129.1,491.1,128.6,491.1,128.3,491.1z"/>
	<path class="st0" d="M130.6,572.8c0-1.6-1.3-2.8-2.8-2.8h-1.6v5.6h1.6C129.3,575.6,130.6,574.4,130.6,572.8z M127.6,574.4h-0.2
		v-3.3h0.2c0.9,0,1.6,0.7,1.6,1.7C129.2,573.7,128.6,574.4,127.6,574.4z"/>
	<polygon class="st0" points="129.6,580.2 129.6,579.1 126.4,579.1 126.4,584.6 129.6,584.6 129.6,583.5 127.7,583.5 127.7,582.4 
		129.5,582.4 129.5,581.3 127.7,581.3 127.7,580.2 	"/>
	<polygon class="st0" points="411.6,327.4 411.5,327.4 411.5,325.7 332.4,325.7 332.4,329.1 408.1,329.1 408.1,673.4 332.4,673.4 
		332.4,676.8 411.3,676.8 411.3,676.5 411.6,676.5 	"/>
	<polygon class="st0" points="63.9,329.1 136.5,329.1 136.5,325.7 63.9,325.7 62.2,325.7 60.5,325.7 60.5,676.7 62.2,676.7 
		62.2,676.8 138.2,676.8 138.2,673.4 63.9,673.4 	"/>
	<path class="st0" d="M253.9,646.9c-5.6-0.1-7.4,4.3-7.4,4.3l-3.2,7.7c-1.3,3.9-5.5,7.2-5.5,7.2c-1.2,0.8-2.3,1.7-3.3,2.7
		c-1-1-2.1-1.9-3.3-2.7c0,0-4.1-3.3-5.3-7.3l-3-7.8c0,0-1.8-4.4-7.4-4.5c0,0-7.8-0.5-7.9,8c0,0,0,8.1,7.3,8.8c0,0,4.3,0.3,6.7-2.7
		c0,0,0.3-0.9,2.6,4c0,0,2.6,5.1,5.4,9.3c-0.7,0.8-1,1.3-1,1.3l-13,18.1c-5.8,7.5-1.3,13.4-1.3,13.4l20.1-26.4L254,707
		c0,0,4.6-5.8-1-13.4l-12.6-18.3c0,0-0.4-0.5-1-1.3c2.9-4.2,5.6-9.2,5.6-9.2c2.4-4.8,2.7-3.9,2.7-3.9c2.3,3.1,6.7,2.9,6.7,2.9
		c7.3-0.6,7.5-8.7,7.5-8.7C261.8,646.5,253.9,646.9,253.9,646.9z M215.5,659.6c-2.7,0-4.9-2.2-4.8-4.9c0-2.7,2.2-4.9,4.9-4.8
		c2.7,0,4.9,2.2,4.8,4.9C220.4,657.5,218.2,659.6,215.5,659.6z M253.7,660c-2.7,0-4.9-2.2-4.8-4.9c0-2.7,2.2-4.9,4.9-4.8
		c2.7,0,4.9,2.2,4.8,4.9C258.6,657.8,256.4,660,253.7,660z"/>
	<path class="st0" d="M160.1,305.4l0,48c0,0,0.2,0.4,2.6,0.8c0.5,0.4,1,1.1,1,2.1c0,0,1.8,1.2,13.5,1.2c11.8,0,13.5-1.2,13.5-1.2
		c0-1,0.5-1.7,1-2.1c2.4-0.4,2.6-0.8,2.6-0.8l0-48l-3.2-5.7v-0.8h0.2c0.2-0.8,0-1.3,0-1.3s-2.4-0.4-14-0.4c-11.6,0-14,0.4-14,0.4
		s-0.2,0.5,0,1.3h0.2v0.8L160.1,305.4z"/>
	<path class="st0" d="M216.9,304.8l0,48c0,0,0.2,0.4,2.6,0.8c0.5,0.4,1,1.1,1,2.1c0,0,1.8,1.2,13.5,1.2c11.8,0,13.5-1.2,13.5-1.2
		c0-1,0.5-1.7,1-2.1c2.4-0.4,2.6-0.8,2.6-0.8l0-48l-3.2-5.7l0-0.8h0.2c0.2-0.8,0-1.3,0-1.3s-2.4-0.4-14-0.4c-11.6,0-14,0.4-14,0.4
		s-0.2,0.5,0,1.3h0.2v0.8L216.9,304.8z"/>
	<path class="st0" d="M274.3,304l0,48c0,0,0.2,0.4,2.6,0.8c0.5,0.4,1,1.1,1,2.1c0,0,1.8,1.2,13.5,1.2s13.5-1.2,13.5-1.2
		c0-1,0.5-1.7,1-2.1c2.4-0.4,2.6-0.8,2.6-0.8l0-48l-3.2-5.7l0-0.8h0.2c0.2-0.8,0-1.3,0-1.3s-2.4-0.4-14-0.4c-11.6,0-14,0.4-14,0.4
		s-0.2,0.5,0,1.3h0.2l0,0.8L274.3,304z"/>
	<path class="st0" d="M299.3,646.8c-5,0-9.1,5.2-9.1,11.5c0,5.3,2.8,9.8,6.7,11.1v35.7h0c0,0,0,0.1,0,0.1c0,0.9,1.1,1.7,2.4,1.7
		c1.3,0,2.4-0.8,2.4-1.7c0,0,0-0.1,0-0.1h0v-35.7c3.8-1.3,6.7-5.8,6.7-11.1C308.4,652,304.4,646.8,299.3,646.8z M299.5,667.9
		c0,0-0.1,0-0.4,0c-3.8,0-6.7-4.2-6.7-9.4c0-0.2,0-0.4,0-0.5h1.8c0,0.2,0,0.5,0,0.7c0,3.9,2,7.2,4.9,7.2c0.2,0,0.4,0,0.4-0.1V667.9z
		"/>
	<path class="st0" d="M169.3,646.9c-5,0-9.1,5.1-9.1,11.5c0,5.3,2.8,9.8,6.7,11.1v35.7h0c0,0,0,0.1,0,0.1c0,0.9,1.1,1.7,2.4,1.7
		c1.3,0,2.4-0.8,2.4-1.7c0,0,0-0.1,0-0.1h0v-35.7c3.8-1.3,6.7-5.8,6.7-11.1C178.3,652,174.3,646.9,169.3,646.9z"/>
</g>
</svg>
