<?xml version="1.0" encoding="utf-8"?>
<!-- Generator: Adobe Illustrator 19.1.0, SVG Export Plug-In . SVG Version: 6.00 Build 0)  -->
<svg version="1.1" id="Camada_1" xmlns="http://www.w3.org/2000/svg" xmlns:xlink="http://www.w3.org/1999/xlink" x="0px" y="0px"
	 viewBox="-133 295.9 731.5 411.1" style="enable-background:new -133 295.9 731.5 411.1;" xml:space="preserve">
<style type="text/css">
	.st0{fill:#FFFFFF;}
	.st1{opacity:0.8;fill:#FFFFFF;enable-background:new    ;}
</style>
<g>
	<g>
		<path class="st0" d="M263.1,403.6v30.1h-17.7v-27.3c0-7.5-3.6-11.1-9.5-11.1c-2.7,0-5.4,1.2-8,4.3c0.1,1.3,0.2,2.6,0.2,3.9v30.1
			h-17.6v-27.3c0-7.5-3.7-11.1-9.5-11.1c-2.7,0-5.3,1.3-7.9,4.7v33.7h-17.6V381h17.6v3.2c3.6-3,7.3-4.8,13.2-4.8
			c6.6,0,12.3,2.5,16.2,7.1c5.5-4.9,10.9-7.1,18.7-7.1C253.7,379.4,263.1,388.6,263.1,403.6z"/>
		<path class="st0" d="M329.9,433.7h-17.6v-2.9c-3.9,2.5-8.7,4-14.5,4c-14.2,0-26.2-11.8-26.2-27.5c0-15.8,12-27.5,26.2-27.5
			c5.8,0,10.5,1.5,14.5,4V381h17.6V433.7z M312.3,415.5v-16.3c-3.3-3.8-7.1-5-11-5c-7.2,0-12.4,5.9-12.4,13.2s5.2,13,12.4,13
			C305.3,420.3,309.1,419.3,312.3,415.5z"/>
		<path class="st0" d="M397,433.7h-17.6V431c-3.9,2.5-8.7,4-14.5,4c-14.2,0-26.2-11.8-26.2-27.6c0-15.7,12-27.4,26.2-27.4
			c5.8,0,10.5,1.5,14.5,4v-27.5H397V433.7z M379.4,415.7v-16.3c-3.3-3.8-7.1-5-11-5c-7.2,0-12.4,5.9-12.4,13
			c0,7.4,5.2,13.2,12.4,13.2C372.3,420.6,376.1,419.5,379.4,415.7z"/>
		<path class="st0" d="M460.9,412.2l0.1,0.3h-37.6c1.4,4.8,5.1,8.5,11.8,8.5c3.7,0,6.5-1.4,8-3.8h17.4
			c-2.5,10.9-12.6,17.7-25.7,17.7c-17.3,0-28.8-11.5-28.8-27.6c0-16,11.2-27.5,28-27.5c15.3,0,27,10.5,27,26.4
			C461.2,408.2,461.2,410.2,460.9,412.2z M423.2,402.2h21.5c-1-5.8-4.8-8.8-10.4-8.8C428.3,393.4,424.5,396.9,423.2,402.2z"/>
		<path class="st0" d="M374.5,459.4c0-5.8,4.6-10,10.3-10c5.7,0,10.3,4.2,10.3,10c0,5.7-4.7,9.9-10.3,9.9
			C379,469.3,374.5,465,374.5,459.4z M393.7,530.2h-17.6v-52.7h17.6V530.2z"/>
		<path class="st0" d="M460.7,500.1v30.1H443V503c0-7.5-3.8-11.1-9.6-11.1c-3.3,0-6.7,1.8-9.8,5.3v33H406v-52.7h17.6v3.6
			c4.2-3.4,8.9-5.2,14.6-5.2C451.5,475.9,460.7,485.1,460.7,500.1z"/>
		<path class="st0" d="M67.1,600.4c0,15.7-12,27.5-26.2,27.5c-5.8,0-10.5-1.5-14.5-4v27.4H8.9v-77.2h17.6v2.8c3.9-2.5,8.7-4,14.5-4
			C55.2,572.9,67.1,584.6,67.1,600.4z M49.8,600.4c0-7.3-5.2-13.2-12.4-13.2c-3.9,0-7.7,1.2-11,5v16.3c3.3,3.8,7.1,4.9,11,4.9
			C44.6,613.4,49.8,607.6,49.8,600.4z"/>
		<path class="st0" d="M131.5,600.4c0,16.1-12,28-28.6,28c-16.6,0-28.6-12-28.6-28c0-15.9,12-27.5,28.6-27.5
			C119.5,572.9,131.5,584.5,131.5,600.4z M114.8,600.5c0-6.8-4.8-12.4-11.8-12.4c-7.2,0-12,5.5-12,12.4c0,7.1,4.8,12.7,12,12.7
			C110,613.2,114.8,607.5,114.8,600.5z"/>
		<path class="st0" d="M175.9,589.9c-8.6,0.3-14,2.6-18.2,6.7v30.1h-17.6v-52.7h17.6v5.7c4.7-4,10.3-6.5,18.2-6.5V589.9z"/>
		<path class="st0" d="M232.6,625.8c-6.8,2.2-10.8,2.6-16,2.6c-12.7,0-21.2-9.3-21.2-23.6v-15.7h-10.3v-15.1h10.3v-17.9h17.6v17.9
			H231v15.1h-17.9v15.1c0,5.3,3,7.9,8.3,7.9c2.5,0,5.4-0.5,9.3-1.3L232.6,625.8z"/>
		<path class="st0" d="M295.4,626.8h-17.6v-3.5c-4.2,3.3-8.8,5.1-14.5,5.1c-13.4,0-22.5-9.2-22.5-24.2v-30.1h17.6v27.4
			c0,7.5,3.9,11.1,9.7,11.1c3.3,0,6.6-1.8,9.7-5.2v-33.3h17.6V626.8z"/>
		<path class="st0" d="M363.5,625.9c0,16.5-11.7,26.1-28.3,26.1c-16,0-27.6-9.1-28.5-22.8h17.4c0.9,4.9,4.6,7.9,11.1,7.9
			c6,0,10.7-3.7,10.7-10.9v-5c-3.9,2.3-8.6,3.7-14.3,3.7c-14.2,0-26.2-11.4-26.2-25.7c0-16.1,12-27.1,26.2-27.1
			c5.8,0,10.4,1.5,14.3,3.9v-2.1h17.6V625.9z M345.9,606v-14.6c-3.3-3.7-7.1-4.9-10.9-4.9c-7.2,0-12.4,5.1-12.4,12.7
			c0,5.8,5.2,11.6,12.4,11.6C338.8,610.9,342.6,609.7,345.9,606z"/>
		<path class="st0" d="M431.1,626.8h-17.6v-2.9c-3.9,2.5-8.7,4-14.5,4c-14.2,0-26.2-11.8-26.2-27.5c0-15.8,12-27.5,26.2-27.5
			c5.8,0,10.5,1.5,14.5,4v-2.8h17.6V626.8z M413.5,608.5v-16.3c-3.3-3.8-7.1-5-11-5c-7.2,0-12.4,5.9-12.4,13.2c0,7.3,5.2,13,12.4,13
			C406.4,613.4,410.2,612.3,413.5,608.5z"/>
		<path class="st0" d="M460.7,626.8h-17.6v-77.2h17.6V626.8z"/>
	</g>
</g>
</svg>
