<?xml version="1.0" encoding="utf-8"?>
<!-- Generator: Adobe Illustrator 19.1.0, SVG Export Plug-In . SVG Version: 6.00 Build 0)  -->
<svg version="1.1" id="Camada_1" xmlns="http://www.w3.org/2000/svg" xmlns:xlink="http://www.w3.org/1999/xlink" x="0px" y="0px"
	 viewBox="0 0 731.5 411.1" style="enable-background:new 0 0 731.5 411.1;" xml:space="preserve">
<style type="text/css">
	.st0{opacity:0.3;}
	.st1{fill:#FFFFFF;}
	.st2{fill:#C1272D;}
	.st3{fill:#93278F;}
	.st4{fill:#00A99D;}
	.st5{fill:#FBB03B;}
	.st6{opacity:0.8;fill:#FFFFFF;}
</style>
<g>
	<path class="st1" d="M72.7,236l5.8-22.9h-1l-2.5,0.5c-1.7,0.1-3.3,0.5-4.6,0.5h-4l-0.4,1h4.8l-6.9,27.2c-0.7,2.8-1.5,4.2-2.3,4.2
		c-0.6,0-0.9-0.2-0.9-0.7c0,0,0-0.4,0.1-1s0.1-1,0.1-1.1c0-0.8-0.3-1.4-0.8-1.9c-0.5-0.5-1.2-0.8-2-0.8c-0.9,0-1.7,0.3-2.3,1
		c-0.7,0.7-1,1.4-1,2.3c0,1,0.4,2,1.3,2.8c0.8,0.8,2,1.3,3.6,1.3c2.5,0,4.9-0.8,7.3-2.4C69.6,244.4,71.5,241.1,72.7,236z"/>
	<path class="st1" d="M76.1,208.3c1,0,1.9-0.4,2.7-1.1c0.8-0.8,1.1-1.7,1.1-2.7c0-1.1-0.4-2-1.2-2.7c-0.8-0.7-1.7-1.1-2.8-1.1
		c-1,0-1.9,0.4-2.6,1.2c-0.7,0.8-1.1,1.6-1.1,2.6c0,1.1,0.4,2,1.1,2.8C74.2,207.9,75.1,208.3,76.1,208.3z"/>
	<path class="st1" d="M102.3,198.5c-1.2,0-2.3,0.4-3.1,1.2c-0.9,0.8-1.3,1.8-1.3,3.1c0,1.1,0.3,1.9,1,2.6s1.4,1,2.4,1
		c1.1,0,1.9-0.3,2.3-0.9c0.3-0.6,0.6-0.9,1-0.9c0.4,0,0.6,0.5,0.6,1.4c0,1.1-0.7,2.3-2,3.5c-1.3,1.2-3.5,2.4-6.5,3.5l0.5,1.5
		c3.5-1.1,6-2.5,7.7-4.3s2.5-3.7,2.5-5.7c0-1.7-0.5-3.1-1.4-4.2C105,199,103.8,198.5,102.3,198.5z"/>
	<path class="st1" d="M146.5,227.9l-1.4-1c-1.4,3.4-2.6,5-3.8,5c-0.6,0-0.9-0.4-0.9-1.3c0-0.4,0.2-1.1,0.5-2.5l3.6-14h-7.1l-0.6,2
		h-0.1c-0.8-2-2.3-3-4.5-3c-3.3,0-6.2,1.5-8.9,4.4c-2.7,2.9-4,6.2-4,9.8c0,2.3,0.7,4.2,2.2,5.7s3.3,2.2,5.4,2.2
		c2.6,0,4.9-1.2,6.9-3.6c0.7,2.4,2.3,3.6,4.8,3.6C141.8,235.2,144.4,232.8,146.5,227.9z M134.6,225.1c-0.8,3.3-1.8,5.5-3,6.7
		c-1.2,1.2-2.3,1.7-3.4,1.7c-1.4,0-2.1-0.6-2.1-1.9c0-0.9,0.6-3.4,1.7-7.7s2-6.8,2.5-7.6c0.6-0.9,1.4-1.3,2.4-1.3
		c0.9,0,1.7,0.3,2.3,1c0.6,0.7,0.9,1.4,0.9,2.3C135.8,219.5,135.4,221.8,134.6,225.1z"/>
	<path class="st1" d="M175.6,228.2l-1.4-1c-1.4,3.5-2.8,5.3-4.3,5.3c-0.5,0-0.7-0.3-0.7-0.8c0-0.2,0-0.4,0.1-0.8
		c0.1-0.4,0.1-0.7,0.1-0.7l4.3-17h-1.3l-1.8,0.5c-1.3,0.1-2.6,0.5-3.8,0.5h-3.7l-0.4,1h3.3l-3.6,13.7c-0.3,1.1-0.4,2-0.4,2.7
		c0,2.4,1.7,3.6,5,3.6C171,235.1,173.8,232.8,175.6,228.2z"/>
	<path class="st1" d="M235.2,213.2c-2.5,0-4.7,1.1-6.6,3.4l-0.1-0.1l0.8-3.3h-0.9l-1.7,0.5c-1.2,0.2-2.5,0.5-3.8,0.5h-5.4l-0.4,1
		h4.6l-7.8,31h-4.1l-0.4,2H225l0.4-2h-4.5l3.6-14.1c1.5,2,3.5,3,5.9,3c3.5,0,6.5-1.3,9.1-3.9s3.8-5.7,3.8-9.4c0-2.7-0.8-4.8-2.5-6.3
		C239.2,213.9,237.3,213.2,235.2,213.2z M234.8,224.8c-1,4.2-1.9,6.8-2.7,7.6c-0.7,0.8-1.6,1.2-2.5,1.2c-1,0-1.9-0.3-2.7-1
		c-0.8-0.7-1.4-1.7-1.7-3.1l2.3-9.2c0.1-0.5,0.9-1.6,2.3-3.1s2.9-2.4,4.3-2.4c0.7,0,1.3,0.2,1.7,0.7c0.4,0.4,0.6,0.9,0.6,1.5
		C236.4,217.9,235.9,220.5,234.8,224.8z"/>
	<path class="st1" d="M281.2,232c-0.6,0-0.9-0.4-0.9-1.3c0-0.4,0.2-1.1,0.5-2.5l3.6-14h-7.1l-0.6,2h-0.1c-0.8-2-2.3-3-4.5-3
		c-3.3,0-6.2,1.5-8.9,4.4c-2.7,2.9-4,6.2-4,9.8c0,2.3,0.7,4.2,2.2,5.7s3.3,2.2,5.4,2.2c2.6,0,4.9-1.2,6.9-3.6
		c0.7,2.4,2.3,3.6,4.8,3.6c3.2,0,5.8-2.4,7.9-7.2l-1.4-1C283.6,230.3,282.3,232,281.2,232z M274.5,225.1c-0.8,3.3-1.8,5.5-3,6.7
		c-1.2,1.2-2.3,1.7-3.4,1.7c-1.4,0-2.1-0.6-2.1-1.9c0-0.9,0.6-3.4,1.7-7.7c1.1-4.2,2-6.8,2.5-7.6c0.6-0.9,1.4-1.3,2.4-1.3
		c0.9,0,1.7,0.3,2.3,1c0.6,0.7,0.9,1.4,0.9,2.3C275.7,219.5,275.3,221.8,274.5,225.1z"/>
	<path class="st1" d="M319.1,214.3c-1.3-0.8-3.3-1.1-5.7-1.1c-3.2,0-5.7,0.6-7.5,1.8c-1.7,1.2-2.6,2.8-2.6,4.7
		c0,2.7,1.9,4.9,5.6,6.5s5.6,3.3,5.6,4.9c0,0.8-0.5,1.5-1.4,1.9c-0.9,0.4-2.1,0.7-3.4,0.7c-1.1,0-1.9-0.3-2.4-1
		c-0.5-0.6-0.7-1.7-0.7-3.3c-0.1-0.5-0.4-1.1-0.9-1.6c-0.5-0.5-1.2-0.8-2.1-0.8c-0.9,0-1.7,0.3-2.4,0.9c-0.7,0.6-1,1.3-1,2.1
		c0,1.5,0.8,2.7,2.5,3.7c1.7,1,3.9,1.5,6.6,1.5c3.2,0,5.8-0.7,7.8-2c2-1.3,3-3,3-5.1c0-1.4-0.5-2.7-1.4-3.9s-2.6-2.3-4.9-3.5
		c-2.4-1.1-3.8-1.9-4.3-2.4c-0.5-0.5-0.8-1-0.8-1.5c0-1.6,1.4-2.4,4.1-2.4c1.6,0,2.4,0.3,2.4,1c0,0.1,0,0.4-0.1,0.8s-0.1,0.7-0.1,1
		c0,0.8,0.3,1.5,0.8,2c0.6,0.5,1.3,0.8,2.1,0.8c0.9,0,1.6-0.3,2.2-0.8s1-1.2,1-1.9C321.1,216.1,320.4,215.1,319.1,214.3z"/>
	<path class="st1" d="M95,263.1h-1.1l-2.8,0.5c-1.9,0.2-3.5,0.5-4.7,0.5h-4.2l-0.4,2h5.6l-4.1,15.6c-1.1-2.2-3-3.5-5.7-3.5
		c-3.7,0-6.9,1.3-9.7,4.1s-4.1,6-4.1,9.7c0,2.2,0.7,4.1,2.2,5.6c1.5,1.6,3.5,2.4,6,2.4c3.3,0,5.9-1.3,7.9-3.8c0.4,2.5,2,3.8,4.7,3.8
		c3.7,0,6.3-2.6,8-7.7l-1.1-0.8c-1.3,3.6-2.5,5.4-3.6,5.4c-0.2,0-0.4-0.1-0.6-0.4c-0.2-0.3-0.3-0.6-0.3-1c0-0.6,0.1-1.7,0.4-2.8
		L95,263.1z M82.2,285.9l-0.9,3.5c-0.8,3.4-2,5.8-3.5,7.1c-1.5,1.3-3,2-4.7,2c-0.6,0-1.2-0.2-1.6-0.5c-0.5-0.4-0.7-0.9-0.7-1.5
		c0-1.2,0.6-3.9,1.8-8c1.2-4.1,2.2-6.6,3-7.5c0.8-0.9,1.8-1.4,2.9-1.4c1.2,0,2.2,0.5,2.9,1.5c0.7,1,1.1,2,1.1,3
		C82.5,284.5,82.4,285.1,82.2,285.9z"/>
	<path class="st1" d="M117,263.4c-1.2,0-2.3,0.4-3.1,1.2c-0.9,0.8-1.3,1.8-1.3,3.1c0,1.1,0.3,1.9,1,2.6s1.4,1,2.4,1
		c1.1,0,1.9-0.3,2.3-0.9c0.3-0.6,0.6-0.9,1-0.9c0.4,0,0.6,0.5,0.6,1.4c0,1.1-0.7,2.3-2,3.5c-1.3,1.2-3.5,2.4-6.5,3.5l0.5,1.5
		c3.5-1.1,6-2.5,7.7-4.3c1.7-1.8,2.5-3.7,2.5-5.7c0-1.7-0.5-3.1-1.4-4.2S118.5,263.4,117,263.4z"/>
	<path class="st1" d="M155,278.1c-2.6,0-5,1.8-7.4,5.4l-0.1-0.1l1.4-5.3h-1.1l-2,0c-1.4,0.1-2.6,0-3.7,0h-4.3l-0.4,2h3.9l-4.9,19
		h7.1l1.9-7.2c0.8-3.2,1.9-5.6,3.1-7.5c1.2-1.9,2.2-2.8,3-2.8c0.4,0,0.9,0.5,1.7,1.5c0.7,1,1.7,1.5,2.8,1.5c0.7,0,1.4-0.3,2.1-0.9
		c0.7-0.6,1-1.3,1-2.3c0-1.1-0.4-2-1.2-2.6S156.1,278.1,155,278.1z"/>
	<path class="st1" d="M194,283.4c0-1.6-0.6-2.9-1.8-3.9c-1.2-1-3-1.4-5.3-1.4c-4.7,0-8.5,1.5-11.4,4.4s-4.3,6.1-4.3,9.5
		c0,2.2,0.8,4.1,2.3,5.7c1.5,1.6,3.9,2.4,7,2.4c5.7,0,10.1-2.3,13.3-6.8l-1.4-0.9c-3.1,3.9-6.6,5.8-10.4,5.8c-2.2,0-3.4-1-3.4-2.9
		c0-1,0.3-2.6,0.9-4.9C189.2,290.8,194,288.5,194,283.4z M182.4,281.8c0.9-1.5,2.1-2.2,3.5-2.2c1,0,1.8,0.3,2.3,0.9
		c0.5,0.6,0.8,1.3,0.8,2.2c0,1.5-0.6,2.9-1.9,4.4c-1.3,1.4-3.6,2.1-7.1,2C180.7,285.7,181.5,283.3,182.4,281.8z"/>
	<path class="st1" d="M271.5,278.1c-2.6,0-5,1.8-7.4,5.4l-0.1-0.1l1.4-5.3h-1.1l-2,0c-1.4,0.1-2.6,0-3.7,0h-4.3l-0.4,2h3.9l-4.9,19
		h7.1l1.9-7.2c0.8-3.2,1.9-5.6,3.1-7.5c1.2-1.9,2.2-2.8,3-2.8c0.4,0,0.9,0.5,1.7,1.5c0.7,1,1.7,1.5,2.8,1.5c0.7,0,1.4-0.3,2.1-0.9
		c0.7-0.6,1-1.3,1-2.3c0-1.1-0.4-2-1.2-2.6S272.6,278.1,271.5,278.1z"/>
	<path class="st1" d="M310.5,283.4c0-1.6-0.6-2.9-1.8-3.9c-1.2-1-3-1.4-5.3-1.4c-4.7,0-8.5,1.5-11.4,4.4s-4.3,6.1-4.3,9.5
		c0,2.2,0.8,4.1,2.3,5.7c1.5,1.6,3.9,2.4,7,2.4c5.7,0,10.1-2.3,13.3-6.8l-1.4-0.9c-3.1,3.9-6.6,5.8-10.4,5.8c-2.2,0-3.4-1-3.4-2.9
		c0-1,0.3-2.6,0.9-4.9C305.7,290.8,310.5,288.5,310.5,283.4z M298.9,281.8c0.9-1.5,2.1-2.2,3.5-2.2c1,0,1.8,0.3,2.3,0.9
		c0.5,0.6,0.8,1.3,0.8,2.2c0,1.5-0.6,2.9-1.9,4.4c-1.3,1.4-3.6,2.1-7.1,2C297.2,285.7,298,283.3,298.9,281.8z"/>
	<path class="st1" d="M340.7,272.2l-7.2,0.6l-1.5,5.4h-3.8l-0.4,2h3.8l-2.6,10.8c-0.4,1.8-0.7,2.9-0.7,3.3c-0.1,0.4-0.1,0.9-0.1,1.3
		c0,1.1,0.5,2.1,1.5,3c1,0.9,2.4,1.3,4.1,1.3c4.7,0,8.2-2.7,10.4-8.1l-1.6-0.5c-1.9,4.1-4.1,6.1-6.5,6.1c-0.7,0-1.1-0.3-1.1-1
		c0-0.4,0.1-1,0.2-1.6l3.7-14.5h5.5l0.4-2h-5.5L340.7,272.2z"/>
	<path class="st1" d="M376.6,279.3c-1.3-0.8-3.3-1.1-5.7-1.1c-3.2,0-5.7,0.6-7.5,1.8s-2.6,2.8-2.6,4.7c0,2.7,1.9,4.9,5.6,6.5
		c3.7,1.6,5.6,3.3,5.6,4.9c0,0.8-0.5,1.5-1.4,1.9c-0.9,0.4-2.1,0.7-3.4,0.7c-1.1,0-1.9-0.3-2.4-1c-0.5-0.6-0.7-1.7-0.7-3.3
		c-0.1-0.5-0.4-1.1-0.9-1.6c-0.5-0.5-1.2-0.8-2.1-0.8c-0.9,0-1.7,0.3-2.4,0.9c-0.7,0.6-1,1.3-1,2.1c0,1.5,0.8,2.7,2.5,3.7
		s3.9,1.5,6.6,1.5c3.2,0,5.8-0.7,7.8-2s3-3,3-5.1c0-1.4-0.5-2.7-1.4-3.9c-0.9-1.2-2.5-2.3-4.9-3.5s-3.8-1.9-4.3-2.4
		c-0.5-0.5-0.8-1-0.8-1.5c0-1.6,1.4-2.4,4.1-2.4c1.6,0,2.4,0.3,2.4,1c0,0.1,0,0.4-0.1,0.8s-0.1,0.7-0.1,1c0,0.8,0.3,1.5,0.8,2
		s1.3,0.8,2.1,0.8c0.9,0,1.6-0.3,2.2-0.8c0.6-0.5,1-1.2,1-1.9C378.6,281,378,280,376.6,279.3z"/>
	<path class="st1" d="M649.8,133.7c-8.4-15.5-17-31.6-34.9-31.6c-17.9,0-26.6,16.1-34.9,31.6c-7.9,14.6-15.3,28.4-29.6,28.4
		c-14.4,0-21.8-13.8-29.6-28.4c-8.4-15.5-17-31.6-34.9-31.6c-17.9,0-26.6,16.1-34.9,31.6c-0.6,1.2-1.3,2.4-1.9,3.5L388.4,20.8
		l-1.4-2.7L140.3,146.3l28.6,55.2c-0.2,0.1-0.3,0.2-0.5,0.4c-0.8,0.7-1.1,1.6-1.1,2.7c0,1.1,0.4,2,1.1,2.7s1.7,1.1,2.7,1.1
		c0.4,0,0.8-0.1,1.2-0.2l40.6,78.2c0,0.1,0,0.1,0,0.2c0,1.5,0.6,2.9,1.8,4.2c-3.1,2.1-4.7,4.4-4.7,7c0,1.9,0.9,3.5,2.7,4.7
		c-3.9,1.5-5.8,3.3-5.8,5.4c0,1.7,0.9,3.1,2.8,4.1c1.9,1,4.5,1.5,7.7,1.5c3.4,0,6.4-0.5,8.8-1.4l40.7,78.4l1.4,2.7l246.7-128.1
		l-62.9-121.2c1.3-2.3,2.6-4.7,3.9-7.1c7.9-14.6,15.3-28.4,29.6-28.4c14.4,0,21.8,13.8,29.6,28.4c8.4,15.5,17,31.6,34.9,31.6
		c17.9,0,26.6-16.1,34.9-31.6c7.9-14.6,15.3-28.4,29.6-28.4c14.4,0,21.8,13.8,29.6,28.4c8.4,15.5,17,31.6,34.9,31.6v-6
		C665.1,162.1,657.7,148.3,649.8,133.7z M445.4,143.5c-6.2,10.4-13.1,18.6-24.2,18.6c-14.3,0-21.8-13.8-29.6-28.4
		c-8.4-15.5-17-31.6-34.9-31.6s-26.6,16.1-34.9,31.6c-7.9,14.6-15.3,28.4-29.6,28.4s-21.8-13.8-29.6-28.4
		c-6.9-12.9-14.1-26.1-26.6-30.3l148.7-77.2L445.4,143.5z M220,286.6c0.1-0.5,0.2-1.1,0.3-1.7c0.5-2.3,1.1-3.7,1.8-4.4s1.5-1,2.4-1
		s1.6,0.3,2,0.8c0.4,0.5,0.7,1.1,0.7,1.8c0,1.2-0.4,3.2-1.1,6c-0.7,2.4-1.8,3.7-3.3,4.1L220,286.6z M215.9,291.7l3,5.7
		c-1.7,0-3-0.1-3.9-0.3c-1-0.2-1.5-0.8-1.5-1.6C213.5,294.5,214.3,293.3,215.9,291.7z M219.6,311.7c-2.5,0-4.4-0.5-5.7-1.5
		c-1.2-1-1.9-2.2-1.9-3.6c0-1.3,0.7-2.5,2-3.5c1.7,0.6,4,0.9,6.9,0.9c0.4,0,0.8,0,1.2,0l3.4,6.6
		C223.9,311.3,221.9,311.7,219.6,311.7z M507.1,262.3L271,384.9l-39.6-76.3c1.5-1.6,2.2-3.4,2.2-5.5c0-1.4-0.5-2.6-1.6-3.6
		c-1.1-1-2.4-1.5-3.9-1.7c-0.6-0.1-1.4-0.1-2.4-0.2l-2-3.9c2.7-0.1,5-0.9,7-2.3c2.2-1.6,3.3-3.5,3.3-5.9c0-0.4-0.1-0.8-0.2-1.4
		c-0.2-0.6-0.2-0.9-0.2-1c0-0.2,0.1-0.6,0.3-1s0.5-0.6,0.8-0.6l1.7,0.5c0.5,0,1-0.2,1.4-0.6c0.4-0.4,0.7-0.9,0.7-1.7
		c0-0.7-0.2-1.2-0.6-1.7c-0.4-0.4-1-0.6-1.6-0.6c-1.5,0-2.7,1.5-3.5,4.4c-2.3-2.4-5.1-3.6-8.5-3.6c-2.6,0-5.1,0.8-7.3,2.3
		l-68.3-131.6l79-41v0.4c14.4,0,21.8,13.8,29.6,28.4c8.4,15.5,17,31.6,34.9,31.6s26.6-16.1,34.9-31.6c7.9-14.6,15.3-28.4,29.6-28.4
		s21.8,13.8,29.6,28.4c8.4,15.5,17,31.6,34.9,31.6c12.8,0,20.8-8.1,27.4-18.4L507.1,262.3z"/>
</g>
</svg>
