<?xml version="1.0" encoding="utf-8"?>
<!-- Generator: Adobe Illustrator 19.1.0, SVG Export Plug-In . SVG Version: 6.00 Build 0)  -->
<svg version="1.1" id="Camada_1" xmlns="http://www.w3.org/2000/svg" xmlns:xlink="http://www.w3.org/1999/xlink" x="0px" y="0px"
	 viewBox="0 0 731.5 411.1" style="enable-background:new 0 0 731.5 411.1;" xml:space="preserve">
<style type="text/css">
	.st0{opacity:0.3;}
	.st1{fill:#FFFFFF;}
	.st2{fill:#C1272D;}
	.st3{fill:#93278F;}
	.st4{fill:#00A99D;}
	.st5{fill:#FBB03B;}
	.st6{opacity:0.8;fill:#FFFFFF;}
</style>
<g>
	<rect x="165" y="166" class="st1" width="36" height="106"/>
	<polygon class="st1" points="94.9,131 59,131 59,272 95,272 95,166 112,166 112,237 148,237 148,166 165,166 165,131 	"/>
	<rect x="218" y="131" class="st1" width="36" height="106"/>
	<polygon class="st1" points="326,237 254,237 254,272 325.4,272 361,272 361,236.8 361,131 326,131 	"/>
	<rect x="379" y="131" class="st1" width="34" height="106"/>
	<rect x="413" y="237" class="st1" width="107" height="35"/>
	<rect x="643" y="202" class="st1" width="36" height="70"/>
	<polygon class="st6" points="573,131 538,131 538,184 486,184 486,218 538,218 538,272 573,272 573,218 627,218 627,184 573,184 	
		"/>
	<rect x="642" y="131" class="st1" width="37" height="35"/>
</g>
</svg>
