<?xml version="1.0" encoding="utf-8"?>
<!-- Generator: Adobe Illustrator 19.1.0, SVG Export Plug-In . SVG Version: 6.00 Build 0)  -->
<svg version="1.1" id="Camada_1" xmlns="http://www.w3.org/2000/svg" xmlns:xlink="http://www.w3.org/1999/xlink" x="0px" y="0px"
	 viewBox="0 0 731.5 411.1" style="enable-background:new 0 0 731.5 411.1;" xml:space="preserve">
<style type="text/css">
	.st0{opacity:0.3;}
	.st1{fill:#FFFFFF;}
	.st2{fill:#C1272D;}
	.st3{fill:#93278F;}
	.st4{fill:#00A99D;}
	.st5{fill:#FBB03B;}
	.st6{opacity:0.8;fill:#FFFFFF;}
</style>
<g>
	<path class="st1" d="M229.5,33h-92.7l46.4,92.9L229.5,33z M202.9,51l-19.8,39.7L163.3,51H202.9z"/>
	<polygon class="st1" points="330.4,108.1 316.3,108.1 316.3,51.2 330.4,51.2 330.4,33.2 284,33.2 284,51.2 298.3,51.2 298.3,108.1 
		284,108.1 284,126.1 330.4,126.1 	"/>
	<path class="st1" d="M431.5,126c22.7,0,41.6-16,46-37.2h-18.6c-4,11.2-14.7,19.2-27.4,19.2c-16,0-29-12.9-29-28.7
		c0-15.9,13-28.7,29-28.7c13.1,0,24.1,8.5,27.7,20.3h18.3C473.4,49.2,454.4,33,431.5,33c-25.9,0-46.9,20.8-46.9,46.5
		S405.6,126,431.5,126z"/>
	<polygon class="st1" points="546.2,126 564.2,126 564.2,51 590.1,51 590.1,33 520.4,33 520.4,51 546.2,51 	"/>
	<path class="st1" d="M183.2,157c-25.7,0-46.5,20.8-46.5,46.5c0,25.7,20.8,46.5,46.5,46.5s46.5-20.8,46.5-46.5
		C229.6,177.8,208.8,157,183.2,157z M183.2,232.5c-16,0-29-13-29-29s13-29,29-29c16,0,29,13,29,29S199.2,232.5,183.2,232.5z"/>
	<path class="st1" d="M342.2,191.7c0-19.1-15.5-34.7-34.7-34.7c0,0-0.1,0-0.1,0v0h-9.1h-10.5h-11.6h-6.4V250h18v-23.6h19.6v0
		c0,0,0.1,0,0.1,0c2.6,0,5.1-0.3,7.5-0.8l12.2,24.4h17.4l-15.5-31.2C337.1,212.4,342.2,202.7,342.2,191.7z M321.1,202.8
		c-3.2,4-8.1,6.5-13.6,6.5c0,0-0.1,0-0.1,0c-0.2,0-0.3,0-0.5,0l0,0h-19.1h-0.6v-34.9h0.6h1.8H307l0,0c0.1,0,0.3,0,0.4,0
		c0,0,0.1,0,0.1,0c9.6,0,17.4,7.8,17.4,17.4C324.9,196,323.5,199.8,321.1,202.8z"/>
	<path class="st1" d="M537.2,226.4h19.5v0c0.1,0,0.2,0,0.3,0c19.2,0,34.8-15.6,34.8-34.8s-15.6-34.8-34.8-34.8c-0.1,0-0.2,0-0.3,0v0
		h-19.5h-11.7h-6.4v93.3h18.1V226.4z M536.6,174.3h0.6h19.5v0c0.1,0,0.2,0,0.3,0c9.7,0,17.5,7.8,17.5,17.5s-7.8,17.5-17.5,17.5
		c-0.1,0-0.2,0-0.3,0v0h-19.5h-0.6V174.3z"/>
	<path class="st1" d="M555.1,281L508.7,374h92.7L555.1,281z M555.1,316.2l19.8,39.7h-39.7L555.1,316.2z"/>
	<path class="st1" d="M136.8,374h92.7l-46.4-92.9L136.8,374z M163.3,356l19.8-39.7L203,356H163.3z"/>
	<polygon class="st1" points="456.8,355.9 412.7,355.9 412.7,281 394.6,281 394.6,355.9 394.6,374 412.7,374 456.8,374 458.6,374 
		467.3,374 467.3,355.9 458.6,355.9 	"/>
	<polygon class="st1" points="331.9,356 287.8,356 287.8,281 269.8,281 269.8,356 269.8,374 287.8,374 331.9,374 333.7,374 
		342.4,374 342.4,356 333.7,356 	"/>
	<polygon class="st1" points="376.3,148.9 394.9,185.8 423.6,171.9 	"/>
	<polygon class="st1" points="399.6,214.3 401.1,212 392.1,194.1 375.1,202.4 	"/>
	<polygon class="st1" points="414,237.5 407.8,225.2 401.4,222.1 379.9,254.1 	"/>
	<polygon class="st1" points="419.7,234.7 423.6,232.8 417.2,229.7 	"/>
	<polygon class="st1" points="423.5,178.9 397.7,191.4 405.2,206 	"/>
	<polygon class="st1" points="453.2,212.5 430.5,178.9 408.2,212 412.5,220.6 430.7,229.4 449.2,220.4 	"/>
	<polygon class="st1" points="492.6,198.5 492.6,148.6 472.3,188.7 	"/>
	<polygon class="st1" points="463.8,191.5 437.4,178.6 456.2,206.5 	"/>
	<polygon class="st1" points="439.1,240.4 430.7,236.3 422.5,240.2 430.8,256.7 	"/>
	<polygon class="st1" points="437.8,171.9 466.6,185.9 485.5,148.7 	"/>
	<polygon class="st1" points="486,141.6 375.3,141.6 430.7,168.5 	"/>
	<polygon class="st1" points="416.8,243 372.9,264.3 372.2,265.4 428.2,265.4 	"/>
	<polygon class="st1" points="491.5,258.9 492.6,259.5 492.6,206.2 465,219.6 	"/>
	<polygon class="st1" points="368.7,206.2 368.7,259.5 369.4,259.1 396.1,219.5 	"/>
	<polygon class="st1" points="444.6,229.5 437.8,232.8 441.9,234.8 	"/>
	<polygon class="st1" points="444.7,243.1 433.5,265.4 488.8,265.4 487.9,264.1 	"/>
	<polygon class="st1" points="368.7,148 368.7,198.5 389.3,188.6 	"/>
	<polygon class="st1" points="469.5,194.2 460.2,212.5 461.5,214.4 486.3,202.4 	"/>
	<polygon class="st1" points="459.7,222.2 453.9,225 447.5,237.6 481,253.8 	"/>
</g>
</svg>
