<?xml version="1.0" encoding="utf-8"?>
<!-- Generator: Adobe Illustrator 19.1.0, SVG Export Plug-In . SVG Version: 6.00 Build 0)  -->
<svg version="1.1" id="Camada_1" xmlns="http://www.w3.org/2000/svg" xmlns:xlink="http://www.w3.org/1999/xlink" x="0px" y="0px"
	 viewBox="-133 295.9 731.5 411.1" style="enable-background:new -133 295.9 731.5 411.1;" xml:space="preserve">
<style type="text/css">
	.st0{fill:#FFFFFF;}
	.st1{opacity:0.8;fill:#FFFFFF;enable-background:new    ;}
</style>
<g>
	<path class="st0" d="M-25.5,477.3h8.4v9.8c0,3.7,3.1,6.7,7,6.7h52.8c3.9,0,7-3,7-6.7v-62.2c0-0.2,0.4-0.6,1-0.6h5.6v46.3
		c0,3.7,3,6.7,6.7,6.7h8.8v9.8c0,3.7,3,6.7,6.7,6.7h23.9c3.7,0,6.7-3,6.7-6.7v-16c0-0.3,0.3-0.6,0.6-0.6h2v0.1c0,3.7,3,6.7,6.7,6.7
		h8.8v9.8c0,3.7,3,6.7,6.7,6.7h23.9c3.7,0,6.7-3,6.7-6.7v-10.4c0.8,0.4,1.7,0.6,2.7,0.6h8.8v9.9c0,3.7,3,6.6,6.6,6.6h32.3
		c3.7,0,6.6-3,6.6-6.6v-11c1.1,0.8,2.5,1.3,4,1.3h8.8v9.8c0,3.7,3,6.7,6.7,6.7h32.6c3.7,0,6.7-3,6.7-6.7v-23.8
		c0-0.3,0.3-0.6,0.6-0.6h8.3c3.7,0,6.7-3,6.7-6.7v-18.4c0-3.7-3-6.7-6.7-6.7h-8.3c-0.2,0-0.3-0.1-0.5-0.2v-6.4
		c0.1-0.1,0.3-0.2,0.5-0.2l8.3,0c3.7,0,6.7-3,6.7-6.7v-9.9h7.4c0.2,0,0.4,0.1,0.5,0.3v9.6c0,0.4,0,0.8,0.1,1.2v51.7
		c0,3.7,3,6.6,6.7,6.6h8.8v9.8c0,3.7,3,6.6,6.7,6.6h32.5c3.7,0,6.6-3,6.6-6.6v-62.1c0-0.3,0.3-0.6,0.6-0.6h8.3c3.7,0,6.6-3,6.6-6.7
		v-25.8c0-3.7-3-6.7-6.6-6.7h-8.8v-9.8c0-3.7-3-6.7-6.6-6.7h-63.6c-3.7,0-6.7,3-6.7,6.7v9.8h-7.9v-9.8c0-3.7-3-6.7-6.7-6.7h-48.2
		c-3.7,0-6.7,3-6.7,6.7v15.8c-2.7-3-6.1-5.3-9.9-6.8c-3.4-10.6-13.3-18.3-25.1-18.3c-12,0-22.2,8.1-25.3,19.2c-0.2,0-0.5,0-0.7,0
		h-8.8v-9.8c0-3.7-3-6.7-6.7-6.7h-23.9c-3.7,0-6.7,3-6.7,6.7v16c0,0.3-0.3,0.6-0.6,0.6h-2v-0.1c0-3.7-3-6.7-6.7-6.7h-8.8v-9.8
		c0-3.7-3-6.7-6.7-6.7H63c-3.7,0-6.7,3-6.7,6.7v9.9h-4.9v-9.8c0-3.7-3.1-6.7-7-6.7H-8.4c-3.9,0-7,3-7,6.7v62.2c0,0.2-0.4,0.6-1,0.6
		h-9.1c-3.9,0-7,3-7,6.7v25.9C-32.5,474.3-29.4,477.3-25.5,477.3z M109.7,464.5c-3.7,0-6.7,3-6.7,6.7v16c0,0.3-0.3,0.6-0.6,0.6H78.5
		c-0.3,0-0.6-0.3-0.6-0.6v-9.8H87c3.7,0,6.7-3,6.7-6.7v-16c0-0.3,0.3-0.6,0.6-0.6h16.8c0.3,0,0.6,0.3,0.6,0.6v9.8H109.7z
		 M94.3,397.8h8.8v9.8c0,3.7,3,6.7,6.7,6.7h16.8c3.7,0,6.7-3,6.7-6.7v-16c0-0.3,0.3-0.6,0.6-0.6h9.1v79.5c0,0.3-0.3,0.6-0.6,0.6
		h-9.1v-0.1c0-3.7-3-6.7-6.7-6.7h-8.8v-9.8c0-3.7-3-6.7-6.7-6.7H94.3c-3.7,0-6.7,3-6.7,6.7v16c0,0.3-0.3,0.6-0.6,0.6h-9.1v-79.5
		c0-0.3,0.3-0.6,0.6-0.6h9.1v0.1C87.6,394.9,90.6,397.8,94.3,397.8z M118.4,471.2c-0.3,0-0.6-0.3-0.6-0.6v-0.1h8.8
		c0.3,0,0.6,0.3,0.6,0.6v0.1H118.4z M164.4,409.9c2.7,2.9,6,5.2,9.8,6.7c0.5,1.7,1.2,3.2,2,4.7h-9.1c-1,0-1.9,0.2-2.7,0.6V409.9z
		 M167.1,471.2c-0.3,0-0.6-0.3-0.6-0.6V428c0-0.3,0.3-0.6,0.6-0.6h13.7c4.7,4.7,11.2,7.5,18.4,7.5c0.2,0,0.5,0,0.7,0v2.9h-17.4
		c-3.7,0-6.6,3-6.6,6.6v26.7H167.1z M199.9,428.9c-0.2,0-0.5,0-0.7,0c-2.7,0-5.3-0.5-7.7-1.5h7.8c0.3,0,0.6,0.3,0.6,0.6V428.9z
		 M218.7,426.3v12.9c-1.1-0.8-2.5-1.3-3.9-1.3H206v-3.8C211,432.8,215.4,430,218.7,426.3z M199.9,443.9v26.7c0,0.3-0.3,0.6-0.6,0.6
		h-17.4v-26.7c0-0.3,0.3-0.6,0.6-0.6H199.9z M215.4,487.1c0,0.3-0.3,0.6-0.6,0.6h-32.3c-0.3,0-0.6-0.3-0.6-0.6v-9.9h17.4
		c3.7,0,6.6-3,6.6-6.6v-26.7h8.8c0.3,0,0.6,0.3,0.6,0.6V487.1z M280.7,437.1h8.3c0.3,0,0.6,0.3,0.6,0.6v18.4c0,0.3-0.3,0.6-0.6,0.6
		h-8.3c-3.7,0-6.7,3-6.7,6.7v23.8c0,0.3-0.3,0.6-0.6,0.6h-32.6c-0.3,0-0.6-0.3-0.6-0.6v-9.8H258c3.7,0,6.7-3,6.7-6.7V447
		c0-0.3,0.3-0.6,0.6-0.6h8.3c3.7,0,6.7-3,6.7-6.7v-2.6C280.4,437.1,280.6,437.1,280.7,437.1z M265.3,420.7h8.3
		c0.3,0,0.6,0.3,0.6,0.6v2.2c-0.1,0.5-0.2,1-0.2,1.5v5.6c0,0.5,0.1,1,0.2,1.5v7.7c0,0.3-0.3,0.6-0.6,0.6h-8.3c-3.7,0-6.7,3-6.7,6.7
		v23.8c0,0.3-0.3,0.6-0.6,0.6h-17.8v-79.6c0-0.3,0.3-0.6,0.6-0.6h33.4v10c0,0.3-0.3,0.6-0.6,0.6l-8.3,0c-3.7,0-6.7,3-6.7,6.7v5.6
		C258.6,417.7,261.6,420.7,265.3,420.7z M318.6,418.2h-8.3c-0.2,0-0.4-0.1-0.5-0.3v-9.6c0-0.4,0-0.8-0.1-1.2v-15.4
		c0-0.3,0.3-0.6,0.6-0.6h48.8v10c0,0.3-0.3,0.6-0.6,0.6h-8.3c-3.7,0-6.7,3-6.7,6.6v62.1c0,0.3-0.3,0.6-0.6,0.6h-17.7v-46.2
		C325.2,421.2,322.2,418.2,318.6,418.2z M310.4,471.1c-0.3,0-0.6-0.3-0.6-0.6v-46.3c0.2,0,0.3,0,0.5,0h8.3c0.3,0,0.6,0.3,0.6,0.6
		v46.2H310.4z M373.9,391.2c0.3,0,0.6,0.3,0.6,0.6v25.8c0,0.3-0.3,0.6-0.6,0.6h-8.3c-3.7,0-6.7,3-6.7,6.6V487c0,0.3-0.3,0.6-0.6,0.6
		h-32.5c-0.3,0-0.6-0.3-0.6-0.6v-9.8h17.7c3.7,0,6.6-3,6.6-6.6v-62.1c0-0.3,0.3-0.6,0.6-0.6h8.3c3.7,0,6.6-3,6.6-6.7v-10H373.9z
		 M294.8,374.7h63.6c0.3,0,0.6,0.3,0.6,0.6v9.8h-48.8c-3.7,0-6.7,3-6.7,6.7v10c-0.2,0-0.3,0-0.5,0h-7.4v-10c0-1.6-0.6-3.1-1.5-4.2
		v-12.2C294.2,375,294.5,374.7,294.8,374.7z M288.2,391.1v10c0,1.6,0.6,3.1,1.5,4.2v12.3c0,0.3-0.3,0.6-0.6,0.6l-8.3,0
		c-0.4,0-0.8,0-1.1,0.1c-1.1-2.2-3.4-3.7-6-3.7h-8.3c-0.3,0-0.6-0.3-0.6-0.6v-5.6c0-0.3,0.3-0.6,0.6-0.6l8.3,0c3.7,0,6.7-3,6.7-6.7
		v-10H288.2z M224.8,375.2c0-0.3,0.3-0.6,0.6-0.6h48.2c0.3,0,0.6,0.3,0.6,0.6v9.8h-33.4c-3.7,0-6.7,3-6.7,6.7v79.6h-8.8
		c-0.3,0-0.6-0.3-0.6-0.6V415c0.5-2,0.8-4.1,0.8-6.3c0-2.2-0.3-4.3-0.8-6.3V375.2z M218.7,403.2v11c-1.8,6.3-6.6,11.4-12.8,13.6
		c-0.1-3.5-3-6.4-6.6-6.4h-15.9c-0.8-0.9-1.4-1.9-2-3c0.8,0.1,1.5,0.1,2.3,0.1c14.5,0,26.3-11.8,26.3-26.3c0-0.2,0-0.4,0-0.6
		C214.2,394.2,217.4,398.3,218.7,403.2z M179,408.7c0-11.2,9.1-20.3,20.3-20.3c1.6,0,3.1,0.2,4.5,0.5c0.2,1.1,0.3,2.1,0.3,3.3
		c0,11.2-9.1,20.3-20.3,20.3c-1.6,0-3.1-0.2-4.5-0.5C179.1,410.9,179,409.8,179,408.7z M183.8,371.9c7.7,0,14.3,4.3,17.8,10.6
		c-0.8-0.1-1.5-0.1-2.3-0.1c-14.5,0-26.3,11.8-26.3,26.3c0,0.2,0,0.4,0,0.6c-4.1-2.6-7.1-6.5-8.6-11.2v-6.4c0-1-0.2-1.9-0.6-2.8
		C165.3,379.3,173.7,371.9,183.8,371.9z M157.5,391.1c0,0.4,0,0.7,0,1.1c0,2.3,0.3,4.6,0.9,6.7v88.2c0,0.3-0.3,0.6-0.6,0.6h-23.9
		c-0.3,0-0.6-0.3-0.6-0.6v-9.8h9.1c3.7,0,6.7-3,6.7-6.7v-79.5H157.5z M111.1,397.8c3.7,0,6.7-3,6.7-6.7v-16c0-0.3,0.3-0.6,0.6-0.6
		h23.9c0.3,0,0.6,0.3,0.6,0.6v9.8h-9.1c-3.7,0-6.7,3-6.7,6.7v16c0,0.3-0.3,0.6-0.6,0.6h-16.8c-0.3,0-0.6-0.3-0.6-0.6v-9.8H111.1z
		 M102.4,391.1c0.3,0,0.6,0.3,0.6,0.6v0.1h-8.8c-0.3,0-0.6-0.3-0.6-0.6v-0.1H102.4z M63,374.6H87c0.3,0,0.6,0.3,0.6,0.6v9.8h-9.1
		c-3.7,0-6.7,3-6.7,6.7v79.5H63c-0.3,0-0.6-0.3-0.6-0.6v-46.8c2.6-1,4.5-3.4,4.5-6.2v-25.9c0-2.8-1.9-5.2-4.5-6.2v-10.4
		C62.4,374.9,62.7,374.6,63,374.6z M56.4,391.2v27.1h-5.6c-3.9,0-7,3-7,6.7v62.2c0,0.2-0.4,0.6-1,0.6h-52.8c-0.6,0-1-0.4-1-0.6v-9.8
		h38.4c3.9,0,7-3,7-6.7v-62.2c0-0.2,0.4-0.6,1-0.6h9.1c3.9,0,7-3,7-6.7v-10H56.4z M-11.1,471.2v-10c0-0.2,0.4-0.6,1-0.6h9.1
		c3.9,0,7-3,7-6.7v-62.2c0-0.2,0.4-0.6,1-0.6h38.4v10c0,0.2-0.4,0.6-1,0.6h-9.1c-3.9,0-7,3-7,6.7v62.2c0,0.2-0.4,0.6-1,0.6H-11.1z
		 M-26.5,444.7c0-0.2,0.4-0.6,1-0.6h9.1c3.9,0,7-3,7-6.7v-62.2c0-0.2,0.4-0.6,1-0.6h52.9c0.6,0,1,0.4,1,0.6v9.8H7c-3.9,0-7,3-7,6.7
		V454c0,0.2-0.4,0.6-1,0.6h-9.1c-3.9,0-7,3-7,6.7v10h-8.4c-0.6,0-1-0.4-1-0.6V444.7z"/>
	<path class="st0" d="M110.3,557.2c0.7-1.5,1.1-3.3,1.1-5.1c0-6.7-5.5-12.2-12.2-12.2c-6.7,0-12.2,5.5-12.2,12.2s5.5,12.2,12.2,12.2
		c1.5,0,3-0.3,4.3-0.8c-0.7,1.5-1.1,3.3-1.1,5.1c0,6.7,5.5,12.2,12.2,12.2c6.7,0,12.2-5.5,12.2-12.2c0-6.7-5.5-12.2-12.2-12.2
		C113.1,556.4,111.7,556.7,110.3,557.2z M93,552.2c0-3.4,2.8-6.2,6.2-6.2c3.4,0,6.2,2.8,6.2,6.2c0,3.4-2.8,6.2-6.2,6.2
		C95.8,558.4,93,555.6,93,552.2z M120.8,568.7c0,3.4-2.8,6.2-6.2,6.2c-3.4,0-6.2-2.8-6.2-6.2c0-3.4,2.8-6.2,6.2-6.2
		C118.1,562.5,120.8,565.3,120.8,568.7z"/>
	<path class="st0" d="M200.4,557.2c0.7-1.5,1.1-3.3,1.1-5.1c0-6.7-5.5-12.2-12.2-12.2c-6.7,0-12.2,5.5-12.2,12.2s5.5,12.2,12.2,12.2
		c1.5,0,3-0.3,4.3-0.8c-0.7,1.5-1.1,3.3-1.1,5.1c0,6.7,5.5,12.2,12.2,12.2c6.7,0,12.2-5.5,12.2-12.2c0-6.7-5.5-12.2-12.2-12.2
		C203.2,556.4,201.8,556.7,200.4,557.2z M183.1,552.2c0-3.4,2.8-6.2,6.2-6.2c3.4,0,6.2,2.8,6.2,6.2c0,3.4-2.8,6.2-6.2,6.2
		C185.9,558.4,183.1,555.6,183.1,552.2z M210.9,568.7c0,3.4-2.8,6.2-6.2,6.2c-3.4,0-6.2-2.8-6.2-6.2c0-3.4,2.8-6.2,6.2-6.2
		C208.2,562.5,210.9,565.3,210.9,568.7z"/>
	<path class="st0" d="M501,528.4h-8.4v-9.8c0-3.7-3.1-6.7-7-6.7h-52.9c-3.9,0-7,3-7,6.7v62.2c0,0.2-0.4,0.6-1,0.6h-8.6V535
		c0-3.7-3-6.6-6.6-6.6h-8.8v-9.8c0-3.7-3-6.6-6.6-6.6h-22.5c-3.7,0-6.7,3-6.7,6.6v8.6l-9.5-11.5c-1.6-2-3.8-3.8-8.4-3.8h-22.4
		c-3.7,0-6.7,3-6.7,6.6V529c-0.8-0.4-1.8-0.6-2.8-0.6h-8.8v-9.8c0-3.7-3-6.7-6.7-6.7h-55.8c-3.7,0-6.7,3-6.7,6.7v23.2
		c-2.7-3-5.9-5.6-9.4-7.7c-6.7-13.1-20.3-22.1-36-22.1l-38,0c-3.7,0-6.7,3-6.7,6.6v23.2c-2.7-3-5.9-5.6-9.4-7.7
		c-6.7-13.1-20.3-22.1-36-22.1l-38,0c-3.7,0-6.7,3-6.7,6.6v54.1l-23.2-41.4c-2.1-3.7-5.2-5.9-8.5-5.9c-0.3,0-0.6,0-0.9,0.1l-6-10.7
		c-2.1-3.7-5.2-5.9-8.5-5.9s-6.4,2.1-8.5,5.9l-32,57c-2.1,3.7-2.3,7.5-0.6,10.4c1.7,2.9,5.1,4.6,9.4,4.6h7.5l-0.8,1.5
		c-1.1,1.9-1.6,3.8-1.7,5.6h-0.1c-3.7,0-6.6,3-6.6,6.6v13.3c0,3.7,3,6.6,6.6,6.6h8.8v9.9c0,3.7,3,6.6,6.6,6.6h53.9
		c3.7,0,6.6-3,6.6-6.6v-12c1.2,1.3,2.9,2.1,4.9,2.1h8.8v9.8c0,3.7,3,6.7,6.7,6.7h34.4c3.7,0,6.7-3,6.7-6.7v-21.2
		c10.7-0.8,20.2-5.7,27-13.2v18c0,3.7,3,6.7,6.7,6.7h8.8v9.8c0,3.7,3,6.7,6.7,6.7h34.4c3.7,0,6.7-3,6.7-6.7v-21.2
		c10.7-0.8,20.2-5.7,27-13.2v18c0,3.7,3,6.7,6.7,6.7h8.8v9.8c0,3.7,3,6.7,6.7,6.7h55.8c3.7,0,6.7-3,6.7-6.7v-10.5
		c0.8,0.4,1.8,0.6,2.8,0.6h8.8v9.8c0,3.7,3,6.6,6.7,6.6h22.5c3.7,0,6.6-3,6.6-6.6v-8.6l9.5,11.5c1.6,2,3.8,3.8,8.4,3.8h22.4
		c3.7,0,6.6-3,6.6-6.6v-9.7h7.9v9.8c0,3.7,3.1,6.7,7,6.7h52.8c3.9,0,7-3,7-6.7v-62.2c0-0.2,0.4-0.6,1-0.6h9.1c3.9,0,7-3,7-6.7V535
		C508.1,531.4,504.9,528.4,501,528.4z M370.9,518.5c0-0.3,0.3-0.6,0.6-0.6H394c0.3,0,0.6,0.3,0.6,0.6v9.8H387c-3.7,0-6.7,3-6.7,6.6
		v8.6l-9.5-11.5c-0.1-0.1-0.2-0.2-0.3-0.4c0.2-0.6,0.4-1.2,0.4-1.9V518.5z M371.6,614.4c-2.5,0-3-0.7-3.8-1.6l-10.9-13.3v0
		c-1.5-1.8-3.9-2.5-6.1-1.7c-2,0.7-3.2,2.5-3.2,4.6v11.3c0,0.3-0.3,0.6-0.6,0.6h-7.6V535c0-0.3,0.3-0.6,0.6-0.6h22.4
		c2.5,0,3,0.7,3.8,1.6l10.9,13.3c1.5,1.8,3.9,2.5,6.1,1.7c2-0.7,3.2-2.5,3.2-4.6V535c0-0.3,0.3-0.6,0.6-0.6h7.6v79.3
		c0,0.3-0.3,0.6-0.6,0.6H371.6z M317.9,591.8c-0.8-0.4-1.8-0.6-2.8-0.6h-8.8v-9.8c0-3.7-3-6.7-6.7-6.7h-1.2c0.1-0.3,0.3-0.5,0.6-0.5
		h16c1,0,1.9-0.2,2.8-0.6V591.8z M283.6,580.7h8.8v9.8c0,3.7,3,6.6,6.7,6.6h1.2v16.6c0,0.3-0.3,0.6-0.6,0.6h-41V535
		c0-0.3,0.3-0.6,0.6-0.6h41v16.6c0,0.3-0.3,0.6-0.6,0.6h-16c-3.7,0-6.7,3-6.7,6.7v15.7C277,577.7,280,580.7,283.6,580.7z
		 M299.1,591.2c-0.3,0-0.6-0.3-0.6-0.6v-9.8h1.2c0.3,0,0.6,0.3,0.6,0.6v9.8H299.1z M315.1,534.4c0.3,0,0.6,0.3,0.6,0.6v32.5
		c0,0.3-0.3,0.6-0.6,0.6h-16c-3.6,0-6.6,2.9-6.6,6.5h-8.8c-0.3,0-0.6-0.3-0.6-0.6v-15.7c0-0.3,0.3-0.6,0.6-0.6h16
		c3.7,0,6.7-3,6.7-6.7v-16.6H315.1z M22.1,534l22.9,40.8c1,1.8,1.2,3.4,0.7,4.4c-0.6,1-2.1,1.6-4.2,1.6H-4.2L22,534.2
		C22,534.1,22.1,534.1,22.1,534z M-22,580.8c-2,0-3.6-0.6-4.2-1.6c-0.6-1-0.4-2.6,0.7-4.4l32-57c1-1.7,2.2-2.8,3.3-2.8
		s2.3,1,3.3,2.8l5.9,10.5c-0.8,0.8-1.6,1.8-2.2,3l-27.8,49.5H-22z M-10.1,591.3l2.5-4.5h49.1c4.2,0,7.7-1.7,9.4-4.6
		c1.1-1.8,1.4-4.1,0.9-6.4L57,585v12.3H42.4c-1.1-2-3.3-3.3-5.7-3.3H-11C-10.9,593.1-10.6,592.2-10.1,591.3z M-17.8,613.9v-13.3
		c0-0.3,0.3-0.6,0.6-0.6h2.1c1.9,2.1,4.9,3.3,8.5,3.3h43.9v7.1h-39c-2.7,0-5.1,1.7-6.1,4.1h-9.3C-17.5,614.5-17.8,614.2-17.8,613.9z
		 M52.7,630.4c0,0.3-0.3,0.6-0.6,0.6H-1.7c-0.3,0-0.6-0.3-0.6-0.6v-9.9h39c2.7,0,5.1-1.7,6.1-4.1h9.3c0.3,0,0.6,0.3,0.6,0.6V630.4z
		 M52.1,610.4h-8.8v-7.1H57v9.2C55.8,611.2,54.1,610.4,52.1,610.4z M63.6,614.5c-0.3,0-0.6-0.3-0.6-0.6v-12c1.4-0.8,2.6-1.8,3.4-3.2
		c1.7-2.9,1.5-6.7-0.6-10.4l-2.8-4.9v-64.8c0-0.3,0.3-0.6,0.6-0.6l38,0c10.3,0,19.6,4.6,25.9,11.8c-3.3-0.9-6.8-1.4-10.5-1.4l-38,0
		c-3.7,0-6.7,3-6.7,6.6v79.4H63.6z M136,552.3c0,19-15.4,34.4-34.4,34.4h-3v27.2c0,0.3-0.3,0.6-0.6,0.6H78.5V535
		c0-0.3,0.3-0.6,0.6-0.6l38,0c5.8,0,11.2,1.4,16,3.9C135,542.6,136,547.4,136,552.3z M117.1,603.2h-3v27.2c0,0.3-0.3,0.6-0.6,0.6
		H79.1c-0.3,0-0.6-0.3-0.6-0.6v-9.8H98c3.7,0,6.7-3,6.7-6.7v-21.2c20.9-1.6,37.4-19,37.4-40.3c0-2.7-0.3-5.4-0.8-7.9
		c2.3,2.2,4.2,4.8,5.8,7.6v33.6C141.2,596.1,130,603.2,117.1,603.2z M153.7,614.5c-0.3,0-0.6-0.3-0.6-0.6v-26.7
		c2.8-5.5,4.4-11.7,4.4-18.3c0-6.6-1.6-12.8-4.4-18.3v-31.9c0-0.3,0.3-0.6,0.6-0.6l38,0c10.3,0,19.6,4.6,25.9,11.8
		c-3.3-0.9-6.8-1.4-10.5-1.4l-38,0c-3.7,0-6.7,3-6.7,6.6v79.4H153.7z M226.1,552.3c0,19-15.4,34.4-34.4,34.4h-3v27.2
		c0,0.3-0.3,0.6-0.6,0.6h-19.6V535c0-0.3,0.3-0.6,0.6-0.6l38,0c5.8,0,11.2,1.4,16,3.9C225.1,542.6,226.1,547.4,226.1,552.3z
		 M207.2,603.2h-3v27.2c0,0.3-0.3,0.6-0.6,0.6h-34.4c-0.3,0-0.6-0.3-0.6-0.6v-9.8h19.6c3.7,0,6.7-3,6.7-6.7v-21.2
		c20.9-1.6,37.4-19,37.4-40.3c0-2.7-0.3-5.4-0.8-7.9c2.3,2.2,4.2,4.8,5.8,7.6v33.6C231.3,596.1,220.1,603.2,207.2,603.2z
		 M243.8,614.5c-0.3,0-0.6-0.3-0.6-0.6v-26.7c2.8-5.5,4.4-11.7,4.4-18.3c0-6.6-1.6-12.8-4.4-18.3v-31.9c0-0.3,0.3-0.6,0.6-0.6h55.8
		c0.3,0,0.6,0.3,0.6,0.6v9.8h-41c-3.7,0-6.7,3-6.7,6.7v79.4H243.8z M315.7,630.3c0,0.3-0.3,0.6-0.6,0.6h-55.8
		c-0.3,0-0.6-0.3-0.6-0.6v-9.8h41c3.7,0,6.7-3,6.7-6.7v-16.6h8.8c0.3,0,0.6,0.3,0.6,0.6V630.3z M324.6,614.4c-0.3,0-0.6-0.3-0.6-0.6
		v-95.2c0-0.3,0.3-0.6,0.6-0.6H347c2.5,0,3,0.7,3.8,1.6l7.3,8.9h-18c-3.7,0-6.7,3-6.7,6.6v79.3H324.6z M363.1,630.3
		c0,0.3-0.3,0.6-0.6,0.6H340c-0.3,0-0.6-0.3-0.6-0.6v-9.8h7.6c3.7,0,6.6-3,6.6-6.6v-8.6l9.5,11.5c0.1,0.1,0.2,0.2,0.3,0.4
		c-0.2,0.6-0.4,1.2-0.4,1.9V630.3z M409.5,630.9h-22.4c-2.5,0-3-0.7-3.8-1.6l-7.3-8.9h18c3.7,0,6.6-3,6.6-6.6v-79.3h8.8
		c0.3,0,0.6,0.3,0.6,0.6v48.9c-0.9,1.1-1.5,2.6-1.5,4.1v25.9c0,1.5,0.6,3,1.5,4.1v12.3C410.1,630.6,409.8,630.9,409.5,630.9z
		 M416.1,614.5v-27.1h8.6c3.9,0,7-3,7-6.7v-62.2c0-0.2,0.4-0.6,1-0.6h52.9c0.6,0,1,0.4,1,0.6v9.8h-38.4c-3.9,0-7,3-7,6.7v62.2
		c0,0.2-0.4,0.6-1,0.6h-9.1c-3.9,0-7,3-7,6.7v10H416.1z M486.6,534.4v10c0,0.2-0.4,0.6-1,0.6h-9.1c-3.9,0-7,3-7,6.7v62.2
		c0,0.2-0.4,0.6-1,0.6h-38.4v-10c0-0.2,0.4-0.6,1-0.6h9.1c3.9,0,7-3,7-6.7V535c0-0.2,0.4-0.6,1-0.6H486.6z M502,560.9
		c0,0.2-0.4,0.6-1,0.6h-9.1c-3.9,0-7,3-7,6.7v62.2c0,0.2-0.4,0.6-1,0.6h-52.8c-0.6,0-1-0.4-1-0.6v-9.8h38.4c3.9,0,7-3,7-6.7v-62.2
		c0-0.2,0.4-0.6,1-0.6h9.1c3.9,0,7-3,7-6.7v-10h8.4c0.6,0,1,0.4,1,0.6V560.9z"/>
</g>
</svg>
